<?xml version="1.0" standalone="no"?>
<!DOCTYPE svg PUBLIC "-//W3C//DTD SVG 1.1//EN" "http://www.w3.org/Graphics/SVG/1.1/DTD/svg11.dtd" >
<svg xmlns="http://www.w3.org/2000/svg">
<metadata>Generated by IcoMoon</metadata>
<defs>
<font id="icomoon" horiz-adv-x="1024">
<font-face units-per-em="1024" ascent="960" descent="-64" />
<missing-glyph horiz-adv-x="1024" />
<glyph unicode="&#x20;" horiz-adv-x="512" d="" />
<glyph unicode="&#xe900;" glyph-name="facebook" d="M413.696 394.752c-3.072 0-70.656 0-101.376 0-16.384 0-21.504 6.144-21.504 21.504 0 40.96 0 82.944 0 123.904 0 16.384 6.144 21.504 21.504 21.504h101.376c0 3.072 0 62.464 0 90.112 0 40.96 7.168 79.872 27.648 115.712 21.504 36.864 52.224 61.44 91.136 75.776 25.6 9.216 51.2 13.312 78.848 13.312h100.352c14.336 0 20.48-6.144 20.48-20.48v-116.736c0-14.336-6.144-20.48-20.48-20.48-27.648 0-55.296 0-82.944-1.024-27.648 0-41.984-13.312-41.984-41.984-1.024-30.72 0-60.416 0-92.16h118.784c16.384 0 22.528-6.144 22.528-22.528v-123.904c0-16.384-5.12-21.504-22.528-21.504-36.864 0-115.712 0-118.784 0v-333.824c0-17.408-5.12-23.552-23.552-23.552-43.008 0-84.992 0-128 0-15.36 0-21.504 6.144-21.504 21.504 0 107.52 0 331.776 0 334.848z" />
<glyph unicode="&#xe901;" glyph-name="next" d="M364.131 747.94c-0.279 0.007-0.608 0.010-0.938 0.010-23.567 0-42.671-19.104-42.671-42.671 0-13.222 6.014-25.040 15.455-32.867l0.071-0.057 261.083-223.666-261.083-223.584c-10.603-7.856-17.4-20.326-17.4-34.383 0-23.567 19.104-42.671 42.671-42.671 11.77 0 22.427 4.765 30.147 12.472l-0.001-0.001 298.917 255.75c9.187 7.874 14.971 19.491 14.971 32.458s-5.784 24.584-14.914 32.41l-0.058 0.048-298.917 256c-7.254 6.466-16.799 10.5-27.281 10.755l-0.052 0.001z" />
<glyph unicode="&#xe902;" glyph-name="quotes" d="M208 80c-1.601 0.017-3.141 0.25-4.602 0.67l0.122-0.030c-6.711 2.003-11.52 8.12-11.52 15.36v310.96h-176c-8.837 0-16 7.163-16 16v0 377.040c0 8.837 7.163 16 16 16v0h400c8.837 0 16-7.163 16-16v0-376.72c0-0.001 0-0.002 0-0.004 0-3.174-0.924-6.132-2.518-8.62l0.038 0.064-208-327.28c-2.882-4.5-7.857-7.44-13.518-7.44-0.001 0-0.002 0-0.003 0v0zM32 439.28h176c8.837 0 16-7.163 16-16v0-272l176 276.72v356h-368zM800 80c-1.601 0.017-3.141 0.25-4.602 0.67l0.122-0.030c-6.711 2.003-11.52 8.12-11.52 15.36v310.96h-176c-8.837 0-16 7.163-16 16v0 377.040c0 8.837 7.163 16 16 16v0h400c8.837 0 16-7.163 16-16v0-376.72c0-0.001 0-0.002 0-0.004 0-3.174-0.924-6.132-2.518-8.62l0.038 0.064-208-327.28c-2.882-4.5-7.857-7.44-13.518-7.44-0.001 0-0.002 0-0.003 0v0zM624 439.28h176c8.837 0 16-7.163 16-16v0-272l176 276.72v356h-368z" />
<glyph unicode="&#xe903;" glyph-name="calendar" d="M826.298 881.141h-38.195v38.649c0 22.082-17.9 39.982-39.982 39.982s-39.982-17.9-39.982-39.982v-38.649h-392.279v38.649c0 22.082-17.9 39.982-39.982 39.982s-39.982-17.9-39.982-39.982v-38.649h-38.193c-109.013 0-197.702-88.689-197.702-197.7v-549.511c0-109.013 88.689-197.702 197.702-197.702h628.598c109.011 0 197.7 88.689 197.7 197.702v549.511c0 109.011-88.689 197.7-197.702 197.7zM197.702 801.177h38.193v-77.965c0-22.082 17.9-39.982 39.982-39.982s39.982 17.9 39.982 39.982v77.965h392.281v-77.965c0-22.082 17.9-39.982 39.982-39.982s39.982 17.9 39.982 39.982v77.965h38.195c64.919 0 117.736-52.816 117.736-117.736v-38.195h-864.071v38.195c0 64.919 52.816 117.736 117.738 117.736zM826.298 16.192h-628.596c-64.921 0-117.738 52.816-117.738 117.738v431.352h864.071v-431.352c0-64.921-52.816-117.738-117.738-117.738zM355.176 408.018c0-22.082-17.9-39.982-39.982-39.982h-78.631c-22.082 0-39.982 17.9-39.982 39.982s17.9 39.982 39.982 39.982h78.631c22.080 0 39.982-17.9 39.982-39.982zM827.422 408.018c0-22.082-17.9-39.982-39.982-39.982h-78.631c-22.082 0-39.982 17.9-39.982 39.982s17.9 39.982 39.982 39.982h78.631c22.080 0 39.982-17.9 39.982-39.982zM591.071 408.018c0-22.082-17.9-39.982-39.982-39.982h-78.631c-22.082 0-39.982 17.9-39.982 39.982s17.9 39.982 39.982 39.982h78.631c22.080 0 39.982-17.9 39.982-39.982zM355.176 172.123c0-22.082-17.9-39.982-39.982-39.982h-78.631c-22.082 0-39.982 17.9-39.982 39.982s17.9 39.982 39.982 39.982h78.631c22.080 0 39.982-17.9 39.982-39.982zM827.422 172.123c0-22.082-17.9-39.982-39.982-39.982h-78.631c-22.082 0-39.982 17.9-39.982 39.982s17.9 39.982 39.982 39.982h78.631c22.080 0 39.982-17.9 39.982-39.982zM591.071 172.123c0-22.082-17.9-39.982-39.982-39.982h-78.631c-22.082 0-39.982 17.9-39.982 39.982s17.9 39.982 39.982 39.982h78.631c22.080 0 39.982-17.9 39.982-39.982z" />
<glyph unicode="&#xe904;" glyph-name="google-plus-logo" d="M662.21 960h-244.211c-108.823 0-184.152-23.858-251.952-79.867-53.322-46.004-85.144-112.862-85.144-178.854 0-101.673 77.519-209.724 221.167-209.724 13.812 0 29.104 1.417 42.598 2.676l-1.988-4.833c-5.774-13.833-11.242-26.883-11.242-47.252 0-39.658 19.131-64.12 37.628-87.756l2.327-2.993-4.135-0.286c-59.318-4.061-169.727-11.633-250.376-61.201-95.254-56.632-102.657-139.016-102.657-162.906 0-95.053 88.581-190.995 286.492-190.995 230.124 0 350.538 126.96 350.538 252.365 0.021 92.758-54.369 138.55-112.101 187.166l-48.7 37.882c-15.049 12.469-33.789 27.983-33.789 56.727 0 28.258 18.74 46.913 35.28 63.369l1.724 1.745c52.592 41.424 112.196 88.391 112.196 189.979 0 102.139-63.824 154.921-94.514 180.292h81.041c0.994 0 1.988 0.275 2.813 0.814l69.809 43.889c1.988 1.258 2.919 3.68 2.263 5.943-0.624 2.263-2.718 3.818-5.066 3.818zM366.063-8.034c-140.274 0-234.524 65.516-234.524 163.033 0 63.675 38.548 109.944 114.47 137.451 60.799 20.464 139.28 21.479 140.063 21.479 13.293 0 19.977 0 30.595-1.333 98.152-69.852 145.34-106.528 145.34-176.379-0.011-88.983-75.097-144.251-195.944-144.251zM364.741 528.982c-117.727 0-166.586 154.752-166.586 237.612 0 42.133 9.581 74.473 29.294 98.892 21.394 26.767 58.028 44.058 93.329 44.058 108.093 0 167.866-145.287 167.866-245.702 0-15.842 0-64.035-33.292-97.507-22.388-22.346-58.8-37.353-90.611-37.353zM1004.488 481.741h-128.683v128.229c0 2.919-2.38 5.288-5.288 5.288h-55.352c-2.919 0-5.288-2.369-5.288-5.288v-128.229h-128.038c-2.919 0-5.288-2.369-5.288-5.288v-56.093c0-2.908 2.369-5.288 5.288-5.288h128.038v-129.054c0-2.908 2.369-5.288 5.288-5.288h55.352c2.908 0 5.288 2.38 5.288 5.288v129.075h128.683c2.919 0 5.288 2.358 5.288 5.288v56.072c0 2.929-2.358 5.288-5.288 5.288z" />
<glyph unicode="&#xe905;" glyph-name="telephone" d="M778.514 282.604c-33.454 33.028-75.219 33.028-108.46 0-25.357-25.144-50.714-50.288-75.645-75.858-6.819-7.032-12.572-8.523-20.882-3.836-16.408 8.95-33.88 16.194-49.649 25.996-73.514 46.239-135.096 105.69-189.645 172.599-27.062 33.241-51.14 68.826-67.974 108.886-3.409 8.097-2.77 13.424 3.836 20.030 25.357 24.505 50.075 49.649 75.006 74.793 34.733 34.946 34.733 75.858-0.213 111.017-19.817 20.030-39.634 39.634-59.451 59.664-20.456 20.456-40.699 41.125-61.368 61.368-33.454 32.602-75.219 32.602-108.46-0.213-25.57-25.144-50.075-50.927-76.071-75.645-24.079-22.8-36.224-50.714-38.781-83.316-4.049-53.058 8.95-103.133 27.275-151.929 37.503-101.002 94.61-190.711 163.862-272.962 93.544-111.23 205.201-199.234 335.822-262.733 58.811-28.553 119.754-50.501 186.023-54.124 45.6-2.557 85.234 8.95 116.984 44.535 21.735 24.292 46.239 46.452 69.253 69.679 34.094 34.52 34.307 76.284 0.426 110.378-40.486 40.699-81.185 81.185-121.884 121.671zM737.814 452.432l78.628 13.424c-12.359 72.236-46.452 137.653-98.232 189.645-54.763 54.763-124.015 89.283-200.3 99.937l-11.080-79.054c59.024-8.31 112.722-34.946 155.126-77.35 40.060-40.060 66.269-90.774 75.858-146.602zM860.764 794.22c-90.774 90.774-205.627 148.094-332.412 165.78l-11.080-79.054c109.526-15.342 208.823-64.991 287.238-143.193 74.367-74.367 123.163-168.337 140.849-271.683l78.628 13.424c-20.669 119.754-77.137 228.427-163.223 314.726z" />
<glyph unicode="&#xe906;" glyph-name="chat" d="M1005 27.92c-47.174 0-73.954 45.85-88.596 87.976 36.462 53.534 55.682 115.886 55.682 180.998 0 177.668-144.544 322.21-322.212 322.21-177.666 0-322.208-144.542-322.208-322.21 0-177.666 144.542-322.208 322.208-322.208 53.102 0 105.316 13.118 151.898 38.050 80.892-60.312 203.41-25.598 208.826-24.018 9.556 2.788 15.608 12.176 14.202 22.030s-9.846 17.172-19.8 17.172zM817.358 51.67c-6.502 5.926-16.114 6.904-23.68 2.416-43.422-25.776-93.15-39.4-143.804-39.4-155.61 0-282.208 126.598-282.208 282.208s126.598 282.21 282.208 282.21c155.612 0 282.212-126.6 282.212-282.21 0-60.060-18.668-117.438-53.99-165.928-3.726-5.116-4.812-11.694-2.926-17.734 10.39-33.286 24.22-60.538 41.102-81 4.45-5.392 9.086-10.296 13.906-14.712-37.102-0.832-81.506 5.61-112.82 34.15zM262.050 297.108l13.94 37.492c-16.19 6.020-31.554 13.318-45.668 21.696-7.566 4.49-17.174 3.508-23.678-2.416-31.32-28.542-75.702-35.004-112.824-34.148 4.822 4.414 9.458 9.318 13.908 14.71 16.884 20.464 30.712 47.716 41.1 81 1.886 6.042 0.8 12.618-2.924 17.734-35.318 48.492-53.986 105.87-53.986 165.93 0 155.612 126.598 282.21 282.208 282.21 130.476 0 243.192-88.434 274.106-215.054l38.86 9.486c-16.816 68.876-56.788 131.25-112.55 175.63-57.49 45.754-126.792 69.938-200.416 69.938-177.666 0-322.208-144.542-322.208-322.21 0-65.11 19.218-127.466 55.68-181-14.642-42.126-41.42-87.976-88.598-87.976-9.954 0-18.392-7.318-19.798-17.172s4.646-19.242 14.202-22.030c2.924-0.852 39.978-11.366 86.196-11.364 39.386 0.002 85.428 7.636 122.646 35.392 12.63-6.722 25.966-12.704 39.804-17.848z" />
<glyph unicode="&#xe907;" glyph-name="star" d="M1024 564.368l-372.078 24.462-140.126 352.032-140.126-352.032-371.67-24.462 285.068-242.052-93.544-367.178 320.272 202.442 320.274-202.442-93.544 367.178z" />
<glyph unicode="&#xe908;" glyph-name="twitter" d="M1024 765.504c-38.080-16.704-78.656-27.776-120.96-33.152 43.52 25.984 76.736 66.816 92.352 116.032-40.576-24.192-85.376-41.28-133.12-50.816-38.528 41.024-93.44 66.432-153.344 66.432-116.224 0-209.792-94.336-209.792-209.984 0-16.64 1.408-32.64 4.864-47.872-174.528 8.512-328.96 92.16-432.704 219.584-18.112-31.424-28.736-67.392-28.736-106.112 0-72.704 37.44-137.152 93.248-174.464-33.728 0.64-66.816 10.432-94.848 25.856 0-0.64 0-1.472 0-2.304 0-102.016 72.768-186.752 168.192-206.272-17.088-4.672-35.712-6.912-55.040-6.912-13.44 0-27.008 0.768-39.744 3.584 27.2-83.136 104.384-144.256 196.16-146.24-71.424-55.872-162.112-89.536-260.288-89.536-17.216 0-33.728 0.768-50.24 2.88 92.992-59.968 203.2-94.208 322.048-94.208 386.304 0 597.504 320 597.504 597.376 0 9.28-0.32 18.24-0.768 27.136 41.664 29.568 76.672 66.496 105.216 108.992z" />
<glyph unicode="&#xe909;" glyph-name="phone-call" d="M996.129 208.487l-142.902 142.902c-51.037 51.037-137.799 30.62-158.213-35.726-15.311-45.935-66.347-71.453-112.28-61.244-102.073 25.518-239.872 158.213-265.39 265.39-15.311 45.935 15.311 96.971 61.244 112.28 66.347 20.415 86.762 107.177 35.726 158.213l-142.902 142.902c-40.829 35.726-102.073 35.726-137.799 0l-96.969-96.969c-96.969-102.073 10.207-372.567 250.079-612.438s510.365-352.154 612.438-250.079l96.969 96.969c35.728 40.829 35.728 102.073 0 137.799z" />
<glyph unicode="&#xe90a;" glyph-name="ribbon" d="M745.882 878.080h-467.763c-63.313-0.92-114.285-52.46-114.285-115.905 0-0.436 0.002-0.872 0.007-1.307l-0.001 0.066v-669.286c-0.001-0.125-0.001-0.273-0.001-0.421 0-27.85 16.644-51.813 40.527-62.484l0.434-0.173c8.043-3.89 17.491-6.163 27.471-6.163 16.941 0 32.352 6.551 43.838 17.257l-0.038-0.035 219.136 194.15c4.784 3.838 10.927 6.159 17.613 6.159s12.829-2.321 17.668-6.202l-0.056 0.043 219.136-194.15c11.541-10.582 26.989-17.066 43.951-17.066 9.912 0 19.307 2.214 27.717 6.175l-0.397-0.168c24.318 10.845 40.961 34.807 40.961 62.657 0 0.148 0 0.296-0.001 0.444v-0.023 669.286c0.004 0.365 0.007 0.797 0.007 1.229 0 64.019-51.898 115.917-115.917 115.917-0.002 0-0.005 0-0.007 0v0zM819.2 91.648c0.009-0.258 0.014-0.562 0.014-0.867 0-11.002-6.474-20.491-15.82-24.867l-0.168-0.071c-3.12-1.506-6.784-2.385-10.654-2.385-6.473 0-12.371 2.461-16.809 6.499l0.020-0.018-219.136 193.741c-11.966 10.15-27.586 16.322-44.646 16.322s-32.68-6.172-44.747-16.405l0.1 0.083-219.136-193.741c-4.418-4.020-10.316-6.481-16.789-6.481-3.87 0-7.534 0.88-10.804 2.45l0.15-0.065c-9.514 4.447-15.988 13.936-15.988 24.938 0 0.305 0.005 0.608 0.015 0.911l-0.001-0.044v669.286c-0.007 0.371-0.010 0.808-0.010 1.246 0 40.825 32.638 74.027 73.244 74.938l0.085 0.002h467.763c40.691-0.912 73.329-34.114 73.329-74.939 0-0.438-0.004-0.876-0.011-1.312l0.001 0.066z" />
<glyph unicode="&#xe90b;" glyph-name="web-design" d="M98.126 66.858c0-8.284 6.716-15 15-15h133.206c8.284 0 15 6.716 15 15s-6.716 15-15 15h-133.206c-8.284 0-15-6.716-15-15zM179.484 525.368h81.648c8.284 0 15 6.716 15 15s-6.716 15-15 15h-81.648c-8.284 0-15-6.716-15-15s6.716-15 15-15zM179.484 445.446h81.648c8.284 0 15 6.716 15 15s-6.716 15-15 15h-81.648c-8.284 0-15-6.716-15-15s6.716-15 15-15zM179.484 365.522h81.648c8.284 0 15 6.716 15 15s-6.716 15-15 15h-81.648c-8.284 0-15-6.716-15-15s6.716-15 15-15zM98.324 525.368h8.57c8.284 0 15 6.716 15 15s-6.716 15-15 15h-8.57c-8.284 0-15-6.716-15-15s6.716-15 15-15zM98.324 445.446h8.57c8.284 0 15 6.716 15 15s-6.716 15-15 15h-8.57c-8.284 0-15-6.716-15-15s6.716-15 15-15zM98.324 365.522h8.57c8.284 0 15 6.716 15 15s-6.716 15-15 15h-8.57c-8.284 0-15-6.716-15-15s6.716-15 15-15zM999.678 746.318h-975.356c-8.284 0-15-6.716-15-15s6.716-15 15-15h975.356c8.286 0 15 6.716 15 15s-6.714 15-15 15zM168.678 959.996c-8.284 0-15-6.716-15-15v-117.518c0-8.284 6.716-15 15-15s15 6.716 15 15v117.518c0 8.284-6.716 15-15 15zM105.98 959.996c-8.284 0-15-6.716-15-15v-80.78c0-5.542-1.58-12.696-13.896-18.898-3.792-1.91-7.91-2.838-12.594-2.838h-0.050c-5.124 0.006-9.576 1.262-13.604 3.836-9.554 6.104-11.512 11.538-11.512 17.816v80.864c0 8.284-6.716 15-15 15s-15-6.716-15-15v-80.866c0-17.846 8.532-32.346 25.36-43.098 8.862-5.662 18.862-8.54 29.716-8.554h0.090c9.35 0 18.128 2.034 26.090 6.044 25.126 12.654 30.4 31.834 30.4 45.694v80.78c0 8.284-6.716 15-15 15zM542.686 890.406l32.372 45.952c4.772 6.772 3.15 16.13-3.624 20.902-6.778 4.772-16.132 3.146-20.9-3.624l-26.182-37.166-26.14 37.158c-4.768 6.776-14.124 8.402-20.9 3.638-6.776-4.766-8.404-14.124-3.638-20.9l32.324-45.948-38.252-54.3c-4.77-6.772-3.148-16.13 3.624-20.902 2.626-1.85 5.64-2.738 8.626-2.738 4.714 0 9.354 2.216 12.276 6.362l32.062 45.514 32.012-45.506c2.92-4.152 7.562-6.37 12.282-6.37 2.98 0 5.992 0.886 8.618 2.732 6.776 4.766 8.404 14.124 3.636 20.9zM432.486 959.996c-8.284 0-15-6.716-15-15v-80.78c0-5.542-1.58-12.696-13.896-18.898-3.792-1.91-7.91-2.838-12.594-2.838h-0.050c-5.126 0.006-9.576 1.26-13.606 3.836-9.554 6.104-11.512 11.538-11.512 17.816v80.864c0 8.284-6.716 15-15 15s-15-6.716-15-15v-80.866c0-17.846 8.534-32.346 25.36-43.096 8.862-5.664 18.86-8.542 29.718-8.556h0.090c9.35 0 18.128 2.034 26.090 6.044 25.126 12.654 30.402 31.832 30.402 45.692v80.782c-0.002 8.284-6.718 15-15.002 15zM292.774 958.812c-7.628 3.226-16.43-0.344-19.658-7.974l-49.694-117.518c-3.226-7.63 0.342-16.43 7.974-19.658 1.908-0.806 3.886-1.188 5.834-1.188 5.846 0 11.402 3.44 13.822 9.162l49.696 117.518c3.226 7.63-0.344 16.432-7.974 19.658zM895.108 929.596h104.57c8.286 0 15 6.716 15 15s-6.714 15-15 15h-104.57c-8.286 0-15-6.716-15-15s6.714-15 15-15zM999.678 901.238h-104.57c-8.286 0-15-6.716-15-15s6.714-15 15-15h104.57c8.286 0 15 6.716 15 15s-6.714 15-15 15zM999.678 842.88h-104.57c-8.286 0-15-6.716-15-15s6.714-15 15-15h104.57c8.286 0 15 6.716 15 15s-6.714 15-15 15zM959.678 649.786h-491.3c-30.328 0-55-24.672-55-55v-603.786c0-30.328 24.672-55 55-55h491.3c30.326 0 55 24.672 55 55v603.786c0 30.326-24.674 55-55 55zM984.678-9c0-13.786-11.214-25-25-25h-491.3c-13.786 0-25 11.214-25 25v603.786c0 13.786 11.214 25 25 25h491.3c13.786 0 25-11.214 25-25zM295.134 197.714h-119.134c-8.284 0-15-6.716-15-15s6.716-15 15-15h119.134c13.786 0 25-11.214 25-25v-151.714c0-13.786-11.214-25-25-25h-230.812c-13.786 0-25 11.214-25 25v151.714c0 13.786 11.214 25 25 25h41.678c8.284 0 15 6.716 15 15s-6.716 15-15 15h-41.678c-30.328 0-55-24.672-55-55v-151.714c0-30.328 24.672-55 55-55h230.812c30.328 0 55 24.672 55 55v151.714c0 30.328-24.672 55-55 55zM295.134 649.786h-230.812c-30.328 0-55-24.672-55-55v-65.208c0-8.284 6.716-15 15-15s15 6.716 15 15v65.208c0 13.786 11.214 25 25 25h230.812c13.786 0 25-11.214 25-25v-268.682c0-13.786-11.214-25-25-25h-230.812c-13.786 0-25 11.214-25 25v133.474c0 8.284-6.716 15-15 15s-15-6.716-15-15v-133.474c0-30.328 24.672-55 55-55h230.812c30.328 0 55 24.672 55 55v268.682c0 30.326-24.672 55-55 55zM714.028 255.83c-58.482 0-109.318 39.552-123.622 96.182-2.028 8.032-10.19 12.898-18.216 10.87-8.032-2.028-12.898-10.184-10.87-18.216 17.672-69.968 80.466-118.836 152.708-118.836 86.85 0 157.508 70.658 157.508 157.508s-70.658 157.508-157.508 157.508c-72.24 0-135.036-48.866-152.708-118.834-2.030-8.032 2.838-16.188 10.87-18.216 8.038-2.030 16.19 2.836 18.216 10.87 14.302 56.63 65.138 96.18 123.622 96.18 70.308 0 127.508-57.2 127.508-127.508s-57.2-127.508-127.508-127.508zM844.274 164.328h-260.49c-34.386 0-62.362-27.976-62.362-62.362s27.974-62.362 62.362-62.362h260.49c34.386 0 62.362 27.976 62.362 62.362s-27.976 62.362-62.362 62.362zM844.274 69.604h-260.49c-17.844 0-32.362 14.518-32.362 32.362s14.518 32.362 32.362 32.362h260.49c17.844 0 32.362-14.518 32.362-32.362s-14.518-32.362-32.362-32.362z" />
<glyph unicode="&#xe90c;" glyph-name="mail" d="M1014.98 756.558l-310.558-308.558 310.558-308.558c5.614 11.734 9.020 24.706 9.020 38.558v540c0 13.854-3.406 26.824-9.020 38.558zM934 808h-844c-13.854 0-26.824-3.406-38.558-9.020l396.926-394.926c35.096-35.096 92.168-35.096 127.264 0l396.926 394.926c-11.734 5.614-24.704 9.020-38.558 9.020zM9.020 756.558c-5.614-11.734-9.020-24.704-9.020-38.558v-540c0-13.854 3.406-26.826 9.020-38.558l310.558 308.558-310.558 308.558zM662 405.578l-43.946-43.946c-58.478-58.478-153.632-58.478-212.11 0l-43.944 43.946-310.558-308.558c11.734-5.614 24.704-9.020 38.558-9.020h844c13.854 0 26.824 3.406 38.558 9.020l-310.558 308.558z" />
<glyph unicode="&#xe90d;" glyph-name="paper-plane" d="M970.069 819.328c3.072 20.224-5.547 40.491-22.229 52.395-16.683 11.861-38.656 13.355-56.789 3.84-145.109-76.203-652.715-342.699-808.619-424.533-19.243-10.069-30.592-30.635-28.928-52.267s16-40.235 36.565-47.275c60.715-20.779 134.912-46.251 251.264-86.144l469.333 438.656-379.819-469.333c124.075-42.539 318.080-109.056 366.763-125.739 15.232-5.248 32.043-3.413 45.824 4.907 13.781 8.363 23.125 22.4 25.557 38.357zM376.832 208.085v-139.52c0-21.419 12.587-40.832 32.085-49.579 19.541-8.789 42.368-5.291 58.368 8.96l121.088 107.605z" />
<glyph unicode="&#xe90e;" glyph-name="speech-bubble" d="M149.091-2.796h-72.556l51.305 51.305c27.663 27.663 44.937 63.642 49.582 102.673-118.463 77.741-177.421 190.364-177.421 308.433 0 217.823 200.199 439.181 513.735 439.181 332.156 0 510.265-203.692 510.265-420.098 0-217.833-179.99-421.388-510.265-421.388-57.856 0-118.229 7.724-172.13 21.895-51.024-52.334-120.158-82.001-192.514-82.001z" />
<glyph unicode="&#xe90f;" glyph-name="maps-and-flags" d="M512 960c-204.49 0-370.854-166.364-370.854-370.852 0-253.776 331.878-626.334 346.008-642.070 13.272-14.782 36.444-14.756 49.692 0 14.13 15.736 346.008 388.294 346.008 642.070-0.004 204.488-166.366 370.852-370.854 370.852zM512 402.562c-102.884 0-186.584 83.702-186.584 186.586s83.702 186.584 186.584 186.584 186.582-83.702 186.582-186.586-83.7-186.584-186.582-186.584z" />
<glyph unicode="&#xe910;" glyph-name="up-arrow" d="M511.75 917.087c-11.579-0.189-22.008-4.961-29.581-12.576l-213.252-213.254c-8.537-7.829-13.87-19.034-13.87-31.485 0-23.567 19.104-42.671 42.671-42.671 12.389 0 23.544 5.279 31.339 13.711l0.026 0.028 140.167 140.167 0.342-749.334c0.53-23.159 19.43-41.73 42.667-41.73s42.136 18.571 42.666 41.681l0.001 0.049-0.342 750.168 140.75-141.001c7.668-7.357 18.098-11.887 29.585-11.887 23.616 0 42.76 19.145 42.76 42.76 0 11.467-4.514 21.88-11.861 29.558l0.015-0.016-213.25 213.252c-7.73 7.772-18.432 12.582-30.257 12.582-0.203 0-0.405-0.001-0.607-0.004h0.031z" />
<glyph unicode="&#xe911;" glyph-name="magnifying-glass" d="M872.521 117.646l-166.672 166.672c51.155 58.333 79.38 132.145 79.38 210.453 0 85.479-33.292 165.833-93.729 226.271s-140.792 93.729-226.271 93.729-165.833-33.292-226.271-93.729-93.729-140.792-93.729-226.271 33.292-165.833 93.729-226.271 140.792-93.729 226.271-93.729c78.309 0 152.12 28.225 210.453 79.38l166.672-166.672c4.167-4.167 9.625-6.25 15.083-6.25s10.917 2.083 15.083 6.25c8.333 8.333 8.333 21.833 0 30.167zM269.125 298.667c-52.375 52.385-81.229 122.031-81.229 196.104s28.854 143.719 81.229 196.104c52.385 52.375 122.031 81.229 196.104 81.229s143.719-28.854 196.104-81.229c52.375-52.385 81.229-122.031 81.229-196.104s-28.854-143.719-81.229-196.104c-52.385-52.375-122.031-81.229-196.104-81.229s-143.719 28.854-196.104 81.229z" />
<glyph unicode="&#xe912;" glyph-name="right-arrow" d="M1012.268 476.314c-0.012 0.012-0.022 0.026-0.036 0.038l-209.008 208c-15.658 15.582-40.984 15.524-56.57-0.136-15.584-15.658-15.524-40.984 0.134-56.568l140.328-139.648h-847.116c-22.092 0-40-17.908-40-40s17.908-40 40-40h847.114l-140.324-139.648c-15.658-15.584-15.718-40.91-0.134-56.568 15.586-15.662 40.914-15.716 56.57-0.136l209.008 208c0.012 0.012 0.022 0.026 0.036 0.038 15.666 15.636 15.616 41.044-0.002 56.628z" />
<glyph unicode="&#xe913;" glyph-name="application" d="M240 112h160v-32h-160zM112 864c0-8.837-7.163-16-16-16s-16 7.163-16 16c0 8.837 7.163 16 16 16s16-7.163 16-16zM208 880h192v-32h-192zM432 624c-2.672 0-5.376-0.144-8.16-0.416-19.968 57.456-73.84 96.416-135.84 96.416-62.864 0-117.744-40.448-136.864-99.552-41.792-11.040-71.136-48.4-71.136-92.448 0-52.944 43.056-96 96-96h256c52.944 0 96 43.056 96 96s-43.056 96-96 96zM432 464h-256c-35.296 0-64 28.704-64 64 0 31.664 22.832 58.16 54.304 62.976l10.544 1.616 2.56 10.352c12.384 50.064 57.040 85.056 108.592 85.056 52.192 0 96.992-35.504 108.928-86.336l3.712-15.824 15.76 3.968c5.936 1.504 10.88 2.192 15.6 2.192 35.296 0 64-28.704 64-64s-28.704-64-64-64zM254.864 224c0-26.464 21.536-48 48-48s48 21.536 48 48-21.536 48-48 48-48-21.536-48-48zM318.864 224c0-8.832-7.168-16-16-16s-16 7.168-16 16 7.168 16 16 16 16-7.168 16-16zM382.064 303.184c-21.152 21.152-49.28 32.816-79.2 32.816s-58.048-11.664-79.184-32.816l22.624-22.624c15.104 15.104 35.2 23.44 56.56 23.44 21.376 0 41.472-8.336 56.576-23.44zM178.4 348.448l22.624-22.624c56.16 56.16 147.504 56.16 203.664 0l22.624 22.624c-68.624 68.624-180.288 68.624-248.912 0zM914.944 352c6.624-18.576 24.224-32 45.056-32 26.464 0 48 21.536 48 48s-21.536 48-48 48c-20.832 0-38.432-13.424-45.056-32h-322.944v32h150.624l96 96h76.32c6.624-18.576 24.224-32 45.056-32 26.464 0 48 21.536 48 48s-21.536 48-48 48c-20.832 0-38.432-13.424-45.056-32h-89.568l-96-96h-137.376v113.008c32.368-20.8 70.752-33.008 112-33.008 114.688 0 208 93.312 208 208s-93.312 208-208 208c-45.936 0-88.304-15.152-122.768-40.48-13.968 24.336-40.144 40.48-69.232 40.48h-416c-44.112 0-80-35.888-80-80v-832c0-44.112 35.888-80 80-80h416c44.112 0 80 35.888 80 80v256h137.376l96-96h89.568c6.624-18.576 24.224-32 45.056-32 26.464 0 48 21.536 48 48s-21.536 48-48 48c-20.832 0-38.432-13.424-45.056-32h-76.32l-96 96h-150.624v32zM960 384c8.832 0 16-7.168 16-16s-7.168-16-16-16-16 7.168-16 16 7.168 16 16 16zM960 544c8.832 0 16-7.168 16-16s-7.168-16-16-16-16 7.168-16 16 7.168 16 16 16zM960 224c8.832 0 16-7.168 16-16s-7.168-16-16-16-16 7.168-16 16 7.168 16 16 16zM644.576 901.456c-8.864-14.704-16.368-32.736-22.256-53.456h-53.968c19.936 24.112 46.24 42.64 76.224 53.456zM752.144 848h-96.304c12.64 39.568 30.96 64 48.16 64s35.52-24.432 48.144-64zM879.184 752h-79.536c-0.736 22.704-2.944 44.208-6.544 64h67.456c10.032-19.536 16.56-41.12 18.624-64zM704 560c-17.2 0-35.52 24.432-48.144 64h96.304c-12.64-39.568-30.96-64-48.16-64zM647.696 656c-3.904 19.344-6.528 40.848-7.36 64h127.328c-0.832-23.152-3.472-44.656-7.36-64zM799.648 720h79.536c-2.080-22.88-8.592-44.464-18.624-64h-67.456c3.6 19.792 5.824 41.296 6.544 64zM767.664 752h-127.328c0.832 23.152 3.472 44.656 7.36 64h112.608c3.904-19.344 6.528-40.848 7.36-64zM547.424 816h67.456c-3.6-19.792-5.808-41.296-6.544-64h-79.536c2.080 22.88 8.608 44.464 18.624 64zM608.352 720c0.736-22.704 2.944-44.208 6.544-64h-67.456c-10.016 19.536-16.544 41.12-18.624 64zM622.32 624c5.888-20.72 13.392-38.752 22.256-53.456-29.984 10.8-56.288 29.344-76.224 53.456zM763.424 570.544c8.848 14.704 16.368 32.736 22.256 53.456h53.968c-19.936-24.112-46.24-42.64-76.224-53.456zM839.664 848h-53.968c-5.888 20.72-13.392 38.752-22.256 53.456 29.968-10.816 56.272-29.344 76.224-53.456zM96 912h416c19.552 0 37.024-12.112 44.32-29.728-18.72-18.912-33.856-41.36-44.272-66.272h-464.048v48c0 26.464 21.536 48 48 48zM512-16h-416c-26.464 0-48 21.536-48 48v0.416c13.408-10.16 29.92-16.416 48-16.416h416c18.080 0 34.592 6.256 48 16.416v-0.416c0-26.464-21.536-48-48-48zM512 48h-416c-26.464 0-48 21.536-48 48v688h453.808c-3.664-15.44-5.808-31.456-5.808-48 0-58.8 24.64-111.872 64-149.744v-490.256c0-26.464-21.536-48-48-48z" />
<glyph unicode="&#xe914;" glyph-name="shopping-cart" d="M827.473 233.886c42.577 0.446 79.805 29.202 90.728 70.442l104.995 390.999c3.344 12.706-4.013 25.636-16.719 29.202-2.006 0.446-4.013 0.892-6.019 0.892h-789.8l-53.723 198.397c-2.675 10.254-12.038 17.611-22.738 17.611h-134.197v-47.482h115.472l51.94-193.939c-0.223-1.56-0.223-3.121 0-4.681l107.001-392.336c0.669-3.121 1.783-6.465 2.898-9.585l36.113-131.522c-34.775-18.502-58.405-55.061-58.405-97.192 0-60.857 49.265-110.122 110.122-110.122s110.122 49.265 110.122 110.122c0 18.948-4.904 37.004-13.375 52.609-2.006 3.567-4.013 7.133-6.465 10.7h280.208c-12.483-17.833-20.063-39.679-20.063-63.309 0-60.857 49.265-110.122 110.122-110.122s110.122 49.265 110.122 110.122c0 28.756-10.923 54.838-28.979 74.455-19.394 22.069-47.927 36.113-79.805 36.336h-466.122l-16.719 61.303c7.133-1.783 14.49-2.898 21.846-2.898h461.441zM825.913 128c34.998 0 63.309-28.311 63.309-63.309s-28.311-63.309-63.309-63.309c-34.998 0-63.309 28.311-63.309 63.309s28.311 63.309 63.309 63.309zM365.14 128c34.998 0 63.086-28.534 63.086-63.309 0-34.998-28.311-63.309-63.309-63.309s-63.086 28.311-63.086 63.309 28.311 63.309 63.309 63.309zM322.786 311.461l-53.277 194.831-47.482 171.201h746.554l-96.524-362.465c-5.35-20.731-23.852-35.221-45.252-35.667h-461.218c-19.394 1.115-36.336 13.598-42.8 32.1z" />
<glyph unicode="&#xe915;" glyph-name="chat-1" d="M608 768h-384c-17.664 0-32-14.336-32-32s14.336-32 32-32h384c17.664 0 32 14.336 32 32s-14.336 32-32 32zM480 640h-256c-17.664 0-32-14.336-32-32s14.336-32 32-32h256c17.664 0 32 14.336 32 32s-14.336 32-32 32zM704 960h-576c-70.592 0-128-57.408-128-128v-640c0-12.416 7.168-23.744 18.432-28.992 4.288-1.984 8.96-3.008 13.568-3.008 7.36 0 14.656 2.56 20.48 7.424l183.104 152.576h468.416c70.592 0 128 57.408 128 128v384c0 70.592-57.408 128-128 128zM768 448c0-35.264-28.672-64-64-64h-480c-7.488 0-14.72-2.624-20.48-7.424l-139.52-116.288v571.712c0 35.264 28.672 64 64 64h576c35.328 0 64-28.736 64-64v-384zM896 704c-17.664 0-32-14.336-32-32s14.336-32 32-32c35.328 0 64-28.736 64-64v-541.376l-108.032 86.4c-5.632 4.48-12.736 6.976-19.968 6.976h-448c-35.328 0-64 28.736-64 64v32c0 17.664-14.336 32-32 32s-32-14.336-32-32v-32c0-70.592 57.408-128 128-128h436.736l151.232-121.024c5.824-4.608 12.928-6.976 20.032-6.976 4.672 0 9.408 1.024 13.888 3.136 11.072 5.376 18.112 16.576 18.112 28.864v608c0 70.592-57.408 128-128 128z" />
<glyph unicode="&#xe916;" glyph-name="coding" d="M207.969 928.022c-26.315 0-47.969-21.654-47.969-47.969v-512c0-21.354 32.031-21.354 32.031 0v399.907h639.906v-399.907c-0.484-21.817 32.49-21.817 32 0v512c0 26.315-21.622 47.969-47.937 47.969zM207.969 895.991h608.031c9.141 0 15.937-6.796 15.937-15.938v-80.062h-639.906v80.062c0 9.141 6.797 15.938 15.938 15.938zM240 864.022c-8.837 0-16-7.164-16-16s7.163-16 16-16c8.836 0 16 7.163 16 16s-7.164 16-16 16zM304 864.022c-8.836 0-16-7.164-16-16s7.164-16 16-16c8.837 0 16 7.163 16 16s-7.163 16-16 16zM368 864.022c-8.836 0-16-7.164-16-16s7.164-16 16-16c8.837 0 16 7.163 16 16s-7.163 16-16 16zM591.187 863.99c-21.603-1.469-20.128-32.529 0.75-32h192.062c20.865 0.484 20.865 31.537 0 32zM80.062 831.99c-26.315 0-48.063-21.623-48.063-47.938v-576.030c0-26.316 21.747-47.969 48.063-47.969h863.969c26.315 0 47.969 21.653 47.969 47.969v576.031c0 26.315-21.654 47.938-47.969 47.938h-32c-21.812 0.484-21.812-32.484 0-32h32c9.141 0 15.938-6.796 15.938-15.938v-464.062h-895.969v464.062c0 9.141 6.922 15.938 16.063 15.938h31.875c21.812-0.484 21.812 32.484 0 32zM560.187 704.271c-7.034 0.048-13.273-4.505-15.375-11.219l-96.031-287.969c-6.771-20.25 23.604-30.407 30.375-10.156l96.031 288.062c3.622 10.361-4.025 21.209-15 21.281zM629.75 611.771l81.25-67.781-81.25-67.688c-17.36-13.591 4.076-39.236 20.531-24.562l95.906 79.969c7.658 6.396 7.658 18.165 0 24.562l-95.906 80.094c-2.867 2.455-6.508 3.816-11.094 3.81-15.124-1.324-20.608-19.366-9.437-28.406zM383.594 640.146c-3.603-0.121-7.061-1.451-9.812-3.78l-96-80.094c-7.658-6.397-7.658-18.166 0-24.562l96-79.969c16.511-15.378 38.561 11.123 20.437 24.562l-81.25 67.688 81.25 67.781c11.822 9.68 4.648 28.841-10.625 28.375zM64 287.96h895.969v-79.937c0-9.141-6.796-15.938-15.938-15.938h-863.969c-9.14 0-16.063 6.796-16.063 15.938zM544.875 255.991l-65.656-0.032c-20.395-2.437-19.025-31.329 0.75-31.875h64.031c21.973-1.941 23.803 31.466 0.875 31.906zM422.25 129.303c-6.422 0.121-12.304-3.58-14.937-9.438-7.705-16.526-21.508-35.823-45.344-55.812h-25.969c-26.315 0-47.937-21.779-47.937-48.094v-31.875c-0.032-8.836 7.101-16.027 15.937-16.062h415.969c8.885-0.032 16.096 7.177 16.062 16.062v31.875c0 26.315-21.747 48.094-48.062 48.094h-25.938c-23.833 19.988-37.64 39.288-45.344 55.812-2.709 6.011-8.824 9.743-15.406 9.406-11.431-0.605-18.569-12.63-13.594-22.938 6.237-13.378 15.761-27.728 28.594-42.281h-208.563c12.832 14.553 22.356 28.903 28.594 42.281 5.080 10.493-2.407 22.721-14.063 22.969zM336 32.022h351.969c9.14 0 16.062-6.922 16.062-16.063v-15.938h-383.969v15.938c0 9.141 6.796 16.063 15.937 16.063z" />
<glyph unicode="&#xe917;" glyph-name="curve" d="M199.167 850.342h-79.7c-9.433 0-17.067-7.642-17.067-17.067v-79.708c0-9.425 7.633-17.067 17.067-17.067h79.7c9.433 0 17.067 7.642 17.067 17.067v22.783h144.806c-101.159-48.055-176.131-142.757-196.828-255.915-30.524-5.27-53.861-31.769-53.861-63.777 0-35.783 29.1-64.892 64.883-64.892s64.9 29.108 64.9 64.892c0 27.641-17.45 51.127-41.849 60.464 24.528 127.62 125.646 228.73 253.258 253.245 9.333-24.397 32.817-41.842 60.457-41.842s51.124 17.446 60.457 41.843c127.615-24.521 228.743-125.648 253.256-253.246-24.398-9.336-41.847-32.824-41.847-60.464 0-35.783 29.117-64.892 64.9-64.892s64.883 29.108 64.883 64.892c0 32.010-23.337 58.508-53.865 63.777-20.681 113.146-95.669 207.854-196.84 255.915h144.821v-22.783c0-9.425 7.633-17.067 17.067-17.067h79.7c9.433 0 17.067 7.642 17.067 17.067v79.708c0 9.425-7.633 17.067-17.067 17.067h-79.7c-9.433 0-17.067-7.642-17.067-17.067v-22.792h-233.449c-7.547 27.474-32.478 47.825-62.318 47.825s-54.771-20.351-62.318-47.825h-233.449v22.792c0 9.425-7.633 17.067-17.067 17.067zM175.233 425.9c-16.95 0-30.75 13.8-30.75 30.758s13.8 30.758 30.75 30.758c16.967 0 30.767-13.8 30.767-30.758s-13.8-30.758-30.767-30.758zM879.517 456.658c0-16.958-13.8-30.758-30.75-30.758-16.967 0-30.767 13.8-30.767 30.758s13.8 30.758 30.767 30.758c16.95 0 30.75-13.8 30.75-30.758zM841.9 816.208h45.567v-45.575h-45.567zM512 824.175c16.95 0 30.75-13.8 30.75-30.758s-13.8-30.758-30.75-30.758-30.75 13.8-30.75 30.758 13.8 30.758 30.75 30.758zM182.1 770.633h-45.567v45.575h45.567zM435.95 37.692h152.1c9.433 0 17.067 7.642 17.067 17.067v199.985l85.8 150.398c3.15 5.517 2.983 12.325-0.45 17.675l-164.1 255.908c-0.23 0.36-0.664 0.477-0.92 0.81-3.11 4.166-7.843 7.040-13.447 7.040-5.603 0-10.335-2.875-13.446-7.040-0.257-0.333-0.69-0.45-0.921-0.81l-164.1-255.908c-3.433-5.35-3.6-12.158-0.45-17.675l85.8-150.398v-199.985c0-9.425 7.633-17.067 17.067-17.067zM453.017 71.825v170.367h117.967v-170.367zM512 479.067c11.433 0 20.733-9.3 20.733-20.733s-9.3-20.742-20.733-20.742-20.733 9.308-20.733 20.742 9.3 20.733 20.733 20.733zM494.933 611.275v-101.066c-21.868-7.225-37.8-27.621-37.8-51.876 0-30.258 24.617-54.875 54.867-54.875s54.867 24.617 54.867 54.875c0 24.255-15.932 44.651-37.8 51.876v101.066l127.083-198.192-78.017-136.758h-132.267l-78.017 136.758z" />
<glyph unicode="&#xe918;" glyph-name="telephone1" d="M984.762 750.908c-39.292 54.066-108.1 102.866-193.752 137.406-85.19 34.352-184.102 53.348-278.52 53.484-94.426 0.236-193.46-18.564-278.772-52.65-85.8-34.282-154.774-82.87-194.208-136.808-37.876-51.806-48.792-107.644-31.57-161.478 11.172-34.924 43.762-58.422 81.116-58.476l127.902-0.12c0.042 0 0.084 0 0.128 0 25.504 0.002 49.466 11.166 65.75 30.644 16.112 19.27 22.786 44.454 18.312 69.098-0.13 0.722-0.29 1.442-0.472 2.156l-6.73 26.164c37.268 17.782 121.708 52.138 218.15 51.592 96.372-0.494 180.754-34.83 218.068-52.62l-6.838-26.016c-0.194-0.736-0.358-1.478-0.498-2.224-4.542-24.63 2.058-49.832 18.114-69.148 16.256-19.56 40.236-30.796 65.806-30.834l127.902-0.12c0.042 0 0.086 0 0.128 0 37.282 0.002 69.882 23.392 81.14 58.242 17.382 53.822 6.61 109.74-31.156 161.708zM957.76 607.988c-3.030-9.376-12.476-15.916-23.004-15.916-0.010 0-0.024 0-0.036 0l-127.902 0.12c-7.368 0.010-14.25 3.212-18.882 8.786-2.518 3.030-6.448 9.332-5.162 18.096l12.724 48.406c3.486 13.266-2.292 27.226-14.134 34.15-4.934 2.884-122.54 70.656-268.956 71.41-0.814 0.004-1.604 0.006-2.416 0.006-145.474 0-262.242-67.476-267.168-70.364-11.766-6.9-17.534-20.76-14.136-33.972l12.472-48.484c1.274-8.782-2.68-15.084-5.21-18.112-4.638-5.548-11.514-8.728-18.882-8.728-0.012 0-0.024 0-0.036 0l-127.904 0.12c-10.526 0.016-19.976 6.588-22.98 15.984-11.184 34.962-3.548 70.892 22.696 106.788 69.714 95.352 247.314 164.414 422.604 164.414 0.312 0 0.646 0 0.958 0 175.464-0.252 353.33-69.942 422.924-165.706 26.178-36.034 33.728-72.032 22.43-106.998zM801.19 400.386l-95.382 100.15c-5.77 6.056-13.764 9.482-22.126 9.482h-61.64v41.646c0 16.876-13.68 30.556-30.556 30.556-16.874 0-30.556-13.68-30.556-30.556v-41.646h-97.844v41.646c0 16.876-13.68 30.556-30.556 30.556s-30.556-13.68-30.556-30.556v-41.646h-61.638c-8.362 0-16.36-3.428-22.126-9.482l-95.38-100.15c-74.784-78.524-115.97-181.488-115.97-289.924v-125.706c0-16.876 13.68-30.556 30.556-30.556h749.184c16.876 0 30.556 13.68 30.556 30.556v125.706c0.004 108.438-41.182 211.4-115.966 289.924zM167.972 15.312v95.15c0 92.674 35.198 180.668 99.114 247.78l86.348 90.668h317.152l86.348-90.668c63.912-67.108 99.11-155.106 99.11-247.78v-95.15h-688.072zM512.010 385.73c-88.18 0-159.918-71.74-159.918-159.918 0-88.18 71.74-159.92 159.918-159.92s159.918 71.74 159.918 159.92c0 88.18-71.738 159.918-159.918 159.918zM512.010 127.006c-54.484 0-98.806 44.324-98.806 98.808 0 54.482 44.324 98.806 98.806 98.806s98.806-44.324 98.806-98.806c0-54.484-44.324-98.808-98.806-98.808z" />
<glyph unicode="&#xe919;" glyph-name="facebook1" d="M960 448c0-230.4-172.8-419.2-393.6-444.8v345.6h105.6l16 121.6h-118.4v73.6c0 35.2 9.6 57.6 60.8 57.6h64v112c-32 3.2-60.8 3.2-92.8 3.2-92.8 0-156.8-57.6-156.8-160v-89.6h-105.6v-121.6h105.6v-342.4c-217.6 35.2-380.8 220.8-380.8 444.8 0 246.4 201.6 448 448 448s448-201.6 448-448z" />
<glyph unicode="&#xe91a;" glyph-name="research-and-development" d="M233.024 19.266c0-7.732-6.268-14-14-14h-30.766c-7.732 0-14 6.268-14 14s6.268 14 14 14h30.766c7.732 0 14-6.268 14-14zM136.408 33.266h-30.768c-7.732 0-14-6.268-14-14s6.268-14 14-14h30.768c7.732 0 14 6.268 14 14s-6.268 14-14 14zM301.638 33.266h-30.766c-7.732 0-14-6.268-14-14s6.268-14 14-14h30.766c7.732 0 14 6.268 14 14s-6.268 14-14 14zM384.254 33.266h-30.766c-7.732 0-14-6.268-14-14s6.268-14 14-14h30.766c7.732 0 14 6.268 14 14s-6.268 14-14 14zM730.014 33.266h-292.156c-7.732 0-14-6.268-14-14s6.268-14 14-14h292.16c7.732 0 14 6.268 14 14s-6.268 14-14 14zM255.418 568.376h30.768c7.732 0 14 6.268 14 14s-6.268 14-14 14h-30.768c-7.732 0-14-6.268-14-14s6.268-14 14-14zM172.802 568.376h30.768c7.732 0 14 6.268 14 14s-6.268 14-14 14h-30.768c-7.732 0-14-6.268-14-14s6.268-14 14-14zM90.186 568.376h30.766c7.732 0 14 6.268 14 14s-6.268 14-14 14h-30.766c-7.732 0-14-6.268-14-14s6.268-14 14-14zM961.092 718.694c0-59.958-24.798-94.554-46.678-125.080-17.532-24.458-32.672-45.58-32.672-76.68v-38.056c0-21.416-16.15-39.104-36.906-41.598v-15.932c0-12.846-6.906-24.080-17.176-30.278v-393.018c0-29.806-24.25-54.054-54.054-54.054h-711.552c-29.804 0-54.054 24.25-54.054 54.054v603.172c0 29.806 24.25 54.054 54.054 54.054h564.612c-6.636 17.75-10.976 38.362-10.976 63.416 0 48.334 18.974 88.994 54.874 117.578 31.25 24.886 73.096 38.59 117.828 38.59s86.576-13.706 117.828-38.59c35.898-28.584 54.874-69.244 54.874-117.578zM36 601.224v-63.752h250.024c35.234 30.902 81.368 49.664 131.806 49.664s96.57-18.762 131.806-49.664h143.014c-4.92 20.718-16.89 37.466-30.28 56.144-7.496 10.458-15.334 21.394-22.4 33.664h-577.916c-14.366 0-26.054-11.688-26.054-26.054zM220.886 224.658c-0.828 0-2.416-0.2-3.758-1.542l-107.884-107.884c-4.886-4.886-7.578-11.424-7.578-18.41s2.692-13.524 7.58-18.412c10.15-10.152 26.67-10.152 36.82 0l107.884 107.884c1.34 1.34 1.542 2.93 1.542 3.758s-0.2 2.416-1.542 3.758l-29.306 29.304c-1.34 1.342-2.93 1.542-3.758 1.542zM274.048 231.948c15.098 15.096 37.572 17.908 55.922 6.992 26.482-15.752 56.864-24.080 87.86-24.080 94.916 0 172.138 77.22 172.138 172.138s-77.22 172.136-172.138 172.136-172.138-77.22-172.138-172.138c0-30.994 8.328-61.376 24.082-87.858 10.916-18.352 8.106-40.826-6.994-55.924l-9.318-9.318 11.268-11.268 9.318 9.318zM799.66-1.946v387.92h-32.336c-19.506 0-35.376 15.87-35.376 35.376v15.932c-20.756 2.494-36.906 20.182-36.906 41.598v30.592h-119.038c26.288-33.874 41.962-76.374 41.962-122.472 0-110.356-89.782-200.138-200.138-200.138-36.034 0-71.364 9.688-102.174 28.014-7.158 4.256-15.92 3.162-21.81-2.726l-11.94-11.94c1.030-3.242 1.584-6.652 1.584-10.156 0-8.91-3.46-17.276-9.742-23.558l-107.884-107.884c-10.534-10.534-24.372-15.8-38.208-15.8s-27.674 5.266-38.208 15.8c-10.174 10.174-15.78 23.746-15.78 38.21s5.604 28.034 15.778 38.208l107.884 107.884c9.104 9.102 22.202 11.8 33.698 8.144l11.954 11.954c5.888 5.888 6.986 14.654 2.728 21.81-18.328 30.812-28.016 66.142-28.016 102.172 0 46.098 15.674 88.6 41.962 122.474h-223.654v-511.416c0-14.368 11.688-26.054 26.054-26.054h711.552c14.366 0 26.054 11.688 26.054 26.054zM816.836 421.348v15.602h-56.886v-15.602c0-3.998 3.376-7.376 7.376-7.376h42.136c3.998 0 7.376 3.376 7.376 7.376zM853.742 478.878v13.376h-130.7v-13.376c0-7.68 6.25-13.928 13.93-13.928h102.84c7.68 0 13.928 6.248 13.928 13.928zM800.298 520.254v98.434c-7.812-0.818-16-0.818-23.812 0v-98.434s23.812 0 23.812 0zM933.092 718.692c0 88.060-75.008 128.168-144.7 128.168s-144.7-40.108-144.7-128.168c0-50.96 21.064-80.346 41.436-108.766 18.114-25.272 36.776-51.418 37.816-89.672h25.542v102.014c0 1.074-0.004 2.134-0.014 3.19-22.898 8.986-41.436 25.756-51.82 48.020-12.382 26.548-12.256 50.37 0.34 63.722 8.332 8.834 20.5 11.25 32.55 6.462 20.060-7.968 41.334-37.504 46.002-96.572 4.4-0.696 8.724-1.020 12.846-1.020s8.446 0.324 12.846 1.020c4.668 59.066 25.944 88.602 46.002 96.572 12.052 4.788 24.22 2.37 32.55-6.462 12.596-13.352 12.724-37.174 0.34-63.722-10.384-22.262-28.922-39.034-51.82-48.020-0.010-1.054-0.016-2.116-0.016-3.19v-102.014h25.544c1.040 38.254 19.702 64.4 37.816 89.672 20.372 28.418 41.436 57.806 41.436 108.766zM854.758 685.312c9.652 20.694 6.348 31.552 4.554 32.78-0.014 0-0.032 0-0.054 0-0.428 0-2.482-0.346-5.602-2.88-9.196-7.47-18.866-26.022-23.124-57.34 9.836 6.208 18.488 15.14 24.224 27.438zM723.13 715.214c-2.97 2.414-4.976 2.842-5.612 2.842-0.066 0-0.118-0.004-0.154-0.012-1.682-1.18-4.986-12.040 4.666-32.732 5.736-12.298 14.388-21.232 24.224-27.438-4.258 31.318-13.926 49.87-23.124 57.34zM668.134 871.642c2.594-4.492 7.298-7.002 12.136-7.002 2.376 0 4.784 0.606 6.988 1.878 6.696 3.866 8.99 12.428 5.124 19.124l-15.192 26.31c-3.866 6.696-12.43 8.988-19.124 5.124-6.696-3.866-8.99-12.428-5.124-19.124zM567.786 802.548l26.31-15.19c2.206-1.274 4.612-1.878 6.988-1.878 4.838 0 9.544 2.51 12.136 7.002 3.866 6.696 1.572 15.258-5.124 19.124l-26.31 15.19c-6.696 3.866-15.258 1.574-19.124-5.124-3.866-6.696-1.572-15.258 5.124-19.124zM1014.122 821.672c-3.866 6.696-12.43 8.988-19.124 5.124l-26.31-15.19c-6.696-3.866-8.99-12.428-5.124-19.124 2.592-4.492 7.298-7.002 12.136-7.002 2.376 0 4.782 0.606 6.988 1.878l26.31 15.19c6.696 3.866 8.99 12.428 5.124 19.124zM788.392 893.616c7.732 0 14 6.268 14 14v30.384c0 7.732-6.268 14-14 14s-14-6.268-14-14v-30.38c0-7.732 6.268-14 14-14zM889.526 866.518c2.206-1.272 4.612-1.878 6.988-1.878 4.838 0 9.544 2.51 12.136 7.002l15.192 26.31c3.866 6.696 1.572 15.258-5.124 19.124-6.694 3.864-15.258 1.574-19.124-5.124l-15.192-26.31c-3.866-6.696-1.572-15.258 5.124-19.124zM272.21 387c0 80.294 65.324 145.618 145.62 145.618s145.62-65.324 145.62-145.618-65.324-145.62-145.62-145.62-145.62 65.326-145.62 145.62zM300.21 387c0-64.856 52.764-117.62 117.62-117.62s117.62 52.764 117.62 117.62-52.764 117.618-117.62 117.618-117.62-52.762-117.62-117.618zM637.086 59.32v201.45c0 7.732 6.268 14 14 14h54.192c7.732 0 14-6.268 14-14v-201.45c0-7.732-6.268-14-14-14h-54.192c-7.732 0-14 6.268-14 14zM665.086 73.32h26.192v173.45h-26.192zM542.84 59.32v127.232c0 7.732 6.268 14 14 14h54.192c7.732 0 14-6.268 14-14v-127.232c0-7.732-6.268-14-14-14h-54.192c-7.732 0-14 6.268-14 14zM570.84 73.32h26.192v99.232h-26.192zM448.594 59.32v64.792c0 7.732 6.268 14 14 14h54.192c7.732 0 14-6.268 14-14v-64.792c0-7.732-6.268-14-14-14h-54.192c-7.732 0-14 6.268-14 14zM476.594 73.32h26.192v36.792h-26.192z" />
<glyph unicode="&#xe91b;" glyph-name="clock" d="M512 960c-282.312 0-512-229.688-512-512s229.688-512 512-512 512 229.688 512 512-229.688 512-512 512zM512 0c-247.032 0-448 200.968-448 448s200.968 448 448 448 448-200.968 448-448-200.968-448-448-448zM544 767.999h-64v-333.249l201.375-201.375 45.25 45.25-182.625 182.625z" />
<glyph unicode="&#xe91c;" glyph-name="productivity" d="M497 839.8h30v-29.528h-30zM497 899.766h30v-29.528h-30zM681.052 542.52h-107.030v-155.698h-47.018v75.99h-107.030v-75.99h-77.030v-121.72h338.106v277.418zM419.976 295.102h-47.030v61.72h47.030zM497.006 386.822v-91.72h-47.030v137.71h47.030zM574.024 295.102h-47.018v61.72h47.018zM651.052 295.102h-47.018v91.72h-0.012v125.698h47.030zM610.946 617.654l-11.906-35.794 28.464-9.47 27.664 83.154-83.154 27.664-9.47-28.466 33.242-11.060-214.348-100.396 12.724-27.168zM205.808 231.434l-6.762 10.218c-47.458 71.732-54.61 135.236-56.894 142.972h-112.152v126.75h112.152c2.246 7.608 9.634 71.538 56.894 142.972l6.762 10.218-79.448 79.446 89.626 89.626 79.448-79.448c134.768 74.664 135.502 56.416 153.19 63.652v112.16h126.75v-112.154c146.164-43.136 136.96-56.808 153.194-63.654l79.444 79.446 33.676-33.676 21.214 21.212-54.89 54.888-83.46-83.462c-37.022 22.94-77.012 39.56-119.176 49.536v117.864h-186.75v-117.868c-42.18-9.99-82.2-26.628-119.174-49.532l-83.462 83.462-132.052-132.052 83.462-83.462c-22.94-37.020-39.56-77.008-49.534-119.172h-117.866v-186.75h117.866c9.974-42.164 26.596-82.154 49.534-119.174l-83.462-83.462 69.276-69.276 21.214 21.212-48.064 48.064zM1024 354.624v186.75h-117.866c-9.974 42.166-26.596 82.158-49.534 119.174l83.462 83.462-55.516 55.516-21.212-21.212 34.302-34.302-79.448-79.446 6.762-10.22c47.362-71.58 54.594-135.178 56.894-142.972h112.156v-126.75h-112.154c-32.468-127.87-57.804-139.61-63.654-153.192l79.448-79.446-89.626-89.626-79.446 79.448c-19.014-8.022-0.578-18.616-153.192-63.656v-112.152h-126.75v112.154c-7.582 2.238-71.544 9.634-142.97 56.894l-10.218 6.762-79.448-79.448-19.562 19.562-21.212-21.212 40.776-40.776 83.462 83.462c37.018-22.936 77.008-39.558 119.174-49.534v-117.864h186.75v117.864c42.164 9.976 82.154 26.596 119.176 49.534l83.46-83.462 132.052 132.052-83.466 83.466c22.324 36.080 39.346 76.214 49.534 119.172h117.866zM827 448c0 173.692-141.308 315-315 315s-315-141.308-315-315c0-108.41 54.7-207.878 146.322-266.078v-0.002c206.862-131.394 483.678 16.3 483.678 266.080zM227 448c0 157.15 127.85 285 285 285s285-127.85 285-285-127.85-285-285-285c-156.618 0-285 126.598-285 285z" />
<glyph unicode="&#xe91d;" glyph-name="profit" d="M434 229.999c11.039 0 20 8.961 20 20s-8.961 20-20 20-20-8.961-20-20 8.961-20 20-20zM7.859 183.858l240-240c7.813-7.813 20.469-7.813 28.281 0l132 132c7.813 7.813 7.813 20.469 0 28.281l-5.859 5.859h288.297c25.32 0 49.484 9.492 68.117 26.789l242.633 227.399c23.227 21.57 30.922 55.836 19.141 85.258-8.516 21.297-25.906 37.594-47.703 44.711-21.805 7.133-45.453 4.242-64.906-7.914-0.125-0.078-53.867-35.344-53.867-35.344-0.367 108.414-65.891 224.024-156.086 276.071 5.148 5.914 9.195 12.914 11.773 20.75 10.32 31.398-6.836 65.383-38.281 75.766-0.984 0.328-1.969 0.617-2.953 0.922l51.484 92.484c2.961 5.32 3.344 11.703 1.023 17.328-2.313 5.633-7.063 9.906-12.914 11.602-36.914 10.734-75.281 16.18-114.039 16.18-38.75 0-77.125-5.445-114.039-16.172-5.852-1.703-10.602-5.969-12.922-11.602-2.313-5.633-1.938-12.016 1.031-17.336l51.484-92.484c-1-0.313-2-0.609-3-0.938-31.398-10.367-48.547-44.344-38.227-75.766 2.578-7.82 6.656-14.797 11.82-20.719-91.539-52.82-156.149-169.617-156.149-276.985 0-2.93 0.070-5.82 0.164-8.688-35.82-9.773-69.125-27.578-97.133-52.102l-60.781-53.18-8.109 8.109c-7.813 7.813-20.469 7.813-28.281 0l-132-132c-7.813-7.813-7.813-20.469 0-28.281zM515.664 913.633c25.625 5.563 51.875 8.367 78.336 8.367s52.711-2.805 78.344-8.367l-44.57-80.055c-22.469 3.133-45.094 3.133-67.539 0zM529.039 785.469c41.039 13.43 85.781 14.445 129.867 0.016 10.492-3.461 16.219-14.805 12.773-25.273-2.594-7.883-9.625-13.234-17.773-13.711-39.438 12.539-80.399 12.563-119.82 0.039 0 0 0 0-0.008 0-8.219 0.516-15.195 5.891-17.758 13.664-3.445 10.484 2.281 21.828 12.719 25.266zM540.102 706.367c34.68 12.492 70.609 12.789 105.375 0.844 92.922-31.953 168.524-147.336 168.524-257.211 0-9.313-0.586-18.188-1.742-26.484l-96.133-63.070c-14.883 18.438-37.438 29.555-62.125 29.555h-40v23.438c23.281 8.258 40 30.492 40 56.563 0 33.086-26.914 60-60 60-11.023 0-20 8.969-20 20s8.977 20 20 20c7.086 0 14.563-3.617 21.633-10.453 7.938-7.68 20.602-7.469 28.281 0.461 7.68 7.938 7.469 20.602-0.469 28.281-10.148 9.828-20.305 15.383-29.445 18.414v23.297c0 11.047-8.953 20-20 20s-20-8.953-20-20v-23.438c-23.273-8.258-40-30.492-40-56.563 0-33.086 26.914-60 60-60 11.031 0 20-8.969 20-20s-8.969-20-20-20c-8.547 0-17.766 5.375-25.969 15.133-7.109 8.453-19.727 9.547-28.18 2.438s-9.547-19.727-2.438-28.18c10.688-12.719 23.266-21.578 36.586-26.047v-23.344h-6.656c-9.828 0-14.242 6.406-21.164 10.883-42.258 31.672-94.602 49.117-147.399 49.117-8.258 0-16.531-0.43-24.766-1.266 0 0.422-0.016 0.836-0.016 1.266 0 108.336 74.516 223.336 166.102 256.367zM263.375 359.116c37.578 32.906 85.867 50.883 135.406 50.883 44.203 0 88.024-14.602 123.383-41.109 5.102-2.984 19.305-18.891 45.172-18.891h86.664c22.766 0 40-18.508 40-40 0-22.055-17.945-40-40-40h-140c-11.047 0-20-8.953-20-20s8.953-20 20-20h140c44.109 0 80 35.891 80 80 0 4.586-0.406 9.109-1.172 13.563l196.399 128.86c9.344 5.773 20.68 7.125 31.117 3.719 10.5-3.438 18.883-11.289 22.984-21.555 5.773-14.406 2.148-30.539-9.289-41.156l-242.625-227.391c-11.141-10.344-25.641-16.039-40.836-16.039h-328.297l-157.68 157.688zM154 301.718l211.719-211.719-103.719-103.719-211.719 211.719z" />
<glyph unicode="&#xe91e;" glyph-name="up-right-arrow" d="M1024 916.39v-662.404c0-24.084-19.526-43.61-43.61-43.61s-43.61 19.526-43.61 43.61v557.112l-862.33-862.328c-8.518-8.514-19.676-12.772-30.838-12.772s-22.32 4.258-30.838 12.772c-17.032 17.032-17.032 44.646 0 61.678l862.332 862.332h-557.12c-24.084 0-43.61 19.526-43.61 43.61s19.526 43.61 43.61 43.61h662.404c24.084 0.002 43.61-19.526 43.61-43.61z" />
<glyph unicode="&#xe91f;" glyph-name="discussion" d="M924.3 594.64c17.6 19.2 28.34 44.74 28.34 72.76 0 59.46-48.42 107.84-107.96 107.84s-107.96-48.38-107.96-107.84c0-51.14 35.82-94.040 83.7-105.060-0.5-0.5-0.98-0.98-1.48-1.48l-108.34-108.26h-126.72c-29.14 0-52.84-23.68-52.84-52.8 0-7.38 1.52-14.4 4.28-20.8h-46.72c2.74 6.38 4.28 13.42 4.28 20.8 0 29.1-23.7 52.8-52.84 52.8h-126.72l-108.34 108.26c-0.48 0.48-0.98 0.98-1.46 1.46 47.92 11.020 83.76 53.92 83.76 105.060 0 59.46-48.46 107.84-108.020 107.84-59.52 0-107.96-48.38-107.96-107.84 0-28.020 10.76-53.56 28.34-72.76-26.98-10.64-46.12-36.94-46.12-67.62v-293.1c0-32.54 26.5-59.020 59.080-59.020h143.84v-179.88c0-32.54 26.5-59.020 59.080-59.020s59.080 26.48 59.080 59.020v238.92c0 9.74-2.38 18.92-6.58 27.020h127.98v-244.14h-26.96c-22.32 0-40.46-18.12-40.46-40.38v-24.42c0-8.84 7.16-16 16-16h134.88c8.84 0 16 7.16 16 16v24.44c0 22.26-18.16 40.38-40.46 40.38h-27v244.14h127.9c-4.2-8.1-6.58-17.3-6.58-27.020v-238.9c0-32.54 26.5-59.020 59.080-59.020s59.080 26.48 59.080 59.020v179.88h143.84c32.58 0 59.080 26.48 59.080 59.020v293.080c0.020 30.7-19.12 56.98-46.1 67.62zM563.44-23.56v-8.44h-102.88v8.44c0 4.62 3.8 8.38 8.46 8.38h85.94c4.68 0 8.48-3.76 8.48-8.38zM768.74 667.4c0 41.82 34.080 75.84 75.96 75.84s75.96-34.020 75.96-75.84-34.080-75.84-75.96-75.84-75.96 34.020-75.96 75.84zM563.080 399.82c0 11.46 9.34 20.8 20.84 20.8h133.34c4.24 0 8.3 1.68 11.3 4.68l113.040 112.94c15.16 15.16 29.48 29.48 56.060 29.48 22.48 0 40.76-18.26 40.76-40.7v-234.080h-106.96v131.060l37.82 37.78c6.26 6.24 6.26 16.38 0.020 22.62-6.24 6.26-16.38 6.26-22.62 0.020l-98.020-97.9c-5.1-5.14-10.9-7.52-18.22-7.52h-146.5c-11.52 0.020-20.86 9.34-20.86 20.82zM746.42 292.96v56.24c9.32 2.62 17.76 7.6 24.88 14.74l28.16 28.12v-99.1zM224.54 292.96v99.1l28.12-28.080c7.14-7.18 15.58-12.16 24.92-14.78v-56.24zM309.58 347.020h404.86v-54.060h-404.86zM179.3 743.24c41.92 0 76.020-34.020 76.020-75.84s-34.1-75.84-76.020-75.84c-41.88 0-75.96 34.020-75.96 75.84s34.080 75.84 75.96 75.84zM126.34 567.72c26.56 0 40.88-14.32 56.040-29.48l113.040-112.96c3-3 7.060-4.68 11.3-4.68h133.34c11.5 0 20.84-9.32 20.84-20.8 0-11.46-9.34-20.8-20.84-20.8h-146.5c-7.34 0-13.12 2.4-18.26 7.56l-97.98 97.86c-6.24 6.24-16.38 6.24-22.62-0.020s-6.24-16.38 0.020-22.62l37.82-37.78v-131.060h-106.96v234.080c0 22.44 18.28 40.7 40.76 40.7zM342.68 233.92v-238.9c0-14.9-12.16-27.020-27.080-27.020s-27.080 12.12-27.080 27.020v195.88c0 8.84-7.16 16-16 16h-159.86c-14.94 0-27.080 12.12-27.080 27.020v27.020h230.020c14.94 0.020 27.080-12.1 27.080-27.020zM938.42 233.92c0-14.9-12.16-27.020-27.080-27.020h-159.84c-8.84 0-16-7.16-16-16v-195.88c0-14.9-12.16-27.020-27.080-27.020s-27.080 12.12-27.080 27.020v238.9c0 14.9 12.16 27.020 27.080 27.020h230.020v-27.020zM343.12 670.16h10.5v-39.62c0-6.16 3.54-11.76 9.080-14.42 2.2-1.060 4.56-1.58 6.92-1.58 3.58 0 7.12 1.2 10.020 3.52l64.92 52.1h80.14c24.38 0 44.22 19.82 44.22 44.18v12.8h10.5l64.92-52.1c2.9-2.32 6.44-3.52 10.020-3.52 2.36 0 4.72 0.52 6.92 1.58 5.54 2.66 9.080 8.28 9.080 14.42v39.62h10.56c24.34 0 44.16 19.8 44.16 44.12v144.56c0 24.36-19.8 44.18-44.16 44.18h-181.64c-24.38 0-44.22-19.82-44.22-44.18v-12.8h-111.94c-24.38 0-44.22-19.82-44.22-44.18v-144.5c0.020-24.36 19.84-44.18 44.22-44.18zM487.080 915.82c0 6.6 5.6 12.18 12.22 12.18h181.64c6.58 0 12.16-5.58 12.16-12.18v-144.56c0-6.68-5.46-12.12-12.16-12.12h-26.56c-8.84 0-16-7.16-16-16v-22.26l-43.3 34.74c-2.84 2.28-6.38 3.52-10.020 3.52h-16.12v99.7c0 24.36-19.84 44.18-44.22 44.18h-37.64zM330.92 858.84c0 6.72 5.48 12.18 12.22 12.18h181.58c6.74 0 12.22-5.46 12.22-12.18v-144.5c0-6.6-5.6-12.18-12.22-12.18h-85.78c-3.64 0-7.18-1.24-10.020-3.52l-43.3-34.74v22.26c0 8.84-7.16 16-16 16h-26.5c-6.74 0-12.22 5.46-12.22 12.18v144.5zM358.34 760.78c0 8.84 7.16 16 16 16h119.14c8.84 0 16-7.16 16-16s-7.16-16-16-16h-119.14c-8.82 0-16 7.16-16 16zM398.94 812.42c0 8.84 7.16 16 16 16h78.56c8.84 0 16-7.16 16-16s-7.16-16-16-16h-78.56c-8.84 0-16 7.16-16 16zM358.36 812.42c0 8.84 7.16 16 16 16h0.020c8.84 0 16-7.16 16-16s-7.16-16-16-16-16.020 7.16-16.020 16z" />
<glyph unicode="&#xe920;" glyph-name="instagram" d="M1022.998 658.941c-2.399 54.409-11.198 91.815-23.802 124.227-13.003 34.405-33.006 65.208-59.215 90.815-25.607 26.005-56.613 46.212-90.619 59.012-32.6 12.604-69.811 21.403-124.22 23.802-54.815 2.602-72.217 3.204-211.244 3.204s-156.429-0.602-211.041-3.001c-54.409-2.399-91.815-11.205-124.22-23.802-34.413-13.003-65.216-33.006-90.822-59.215-26.005-25.607-46.204-56.613-59.012-90.619-12.604-32.608-21.403-69.811-23.802-124.22-2.602-54.815-3.204-72.217-3.204-211.244s0.602-156.429 3.001-211.041c2.399-54.409 11.205-91.815 23.809-124.227 13.003-34.405 33.202-65.208 59.207-90.815 25.607-26.005 56.613-46.212 90.619-59.012 32.608-12.604 69.811-21.403 124.227-23.802 54.604-2.407 72.014-3.001 211.041-3.001s156.429 0.594 211.041 3.001c54.409 2.399 91.815 11.198 124.22 23.802 68.818 26.607 123.227 81.016 149.834 149.826 12.596 32.608 21.403 69.818 23.802 124.227 2.399 54.612 3.001 72.014 3.001 211.041s-0.203 156.429-2.602 211.041zM930.785 240.86c-2.204-50.010-10.604-77.015-17.605-95.019-17.206-44.61-52.612-80.016-97.222-97.222-18.004-7.001-45.204-15.401-95.019-17.597-54.011-2.407-70.209-3.001-206.837-3.001s-153.030 0.594-206.845 3.001c-50.010 2.196-77.015 10.596-95.019 17.597-22.2 8.205-42.407 21.207-58.808 38.211-17.003 16.605-30.006 36.609-38.211 58.808-7.001 18.004-15.401 45.212-17.597 95.019-2.407 54.011-3.001 70.217-3.001 206.845s0.594 153.030 3.001 206.837c2.196 50.010 10.596 77.015 17.597 95.019 8.205 22.207 21.207 42.407 38.414 58.816 16.597 17.003 36.601 30.006 58.808 38.203 18.004 7.001 45.212 15.401 95.019 17.605 54.011 2.399 70.217 3.001 206.837 3.001 136.831 0 153.030-0.602 206.845-3.001 50.010-2.204 77.015-10.604 95.019-17.605 22.2-8.197 42.407-21.199 58.808-38.203 17.003-16.605 30.006-36.609 38.211-58.816 7.001-18.004 15.401-45.204 17.605-95.019 2.399-54.011 3.001-70.209 3.001-206.837s-0.602-152.631-3.001-206.642zM513.899 710.951c-145.224 0-263.051-117.82-263.051-263.051s117.828-263.051 263.051-263.051c145.231 0 263.051 117.82 263.051 263.051s-117.82 263.051-263.051 263.051zM513.899 277.265c-94.214 0-170.635 76.413-170.635 170.635s76.421 170.635 170.635 170.635c94.222 0 170.635-76.413 170.635-170.635s-76.413-170.635-170.635-170.635zM848.769 721.352c0-33.913-27.498-61.41-61.418-61.41-33.913 0-61.41 27.498-61.41 61.41 0 33.921 27.498 61.41 61.41 61.41 33.921 0 61.418-27.49 61.418-61.41z" />
<glyph unicode="&#xe921;" glyph-name="left-arrow" d="M984 488h-847.116l140.328 139.648c15.658 15.584 15.718 40.91 0.134 56.568-15.584 15.66-40.912 15.718-56.57 0.136l-209.008-208c-0.014-0.012-0.024-0.026-0.036-0.038-15.618-15.584-15.668-40.992-0.004-56.628 0.014-0.012 0.024-0.026 0.036-0.038l209.008-208c15.656-15.58 40.984-15.526 56.57 0.136 15.584 15.658 15.524 40.984-0.134 56.568l-140.324 139.648h847.116c22.092 0 40 17.908 40 40s-17.908 40-40 40z" />
<glyph unicode="&#xe922;" glyph-name="pinterest" d="M525.909 960c-280.704-0.043-429.909-179.883-429.909-375.979 0-90.923 50.816-204.373 132.181-240.341 23.211-10.453 20.139 2.304 40.107 78.677 1.579 6.357 0.768 11.861-4.352 17.792-116.309 134.528-22.699 411.093 245.376 411.093 387.968 0 315.477-536.832 67.499-536.832-63.915 0-111.531 50.176-96.469 112.256 18.261 73.941 54.016 153.429 54.016 206.72 0 134.315-200.107 114.389-200.107-63.573 0-54.997 19.456-92.117 19.456-92.117s-64.384-260.096-76.331-308.693c-20.224-82.261 2.731-215.424 4.736-226.901 1.237-6.315 8.32-8.32 12.288-3.115 6.357 8.32 84.181 119.339 105.984 199.595 7.936 29.227 40.491 147.84 40.491 147.84 21.461-38.741 83.328-71.168 149.248-71.168 196.096 0 337.835 172.373 337.835 386.261-0.683 205.056-176.171 358.485-402.048 358.485z" />
<glyph unicode="&#xe923;" glyph-name="people" d="M695.2 684.5c0-9.8-0.7-19.5-2-29.2 0.4 2.7 0.7 5.3 1.1 8-2.6-18.3-7.4-36.2-14.5-53.2 1 2.4 2 4.8 3 7.2-5.3-12.6-11.8-24.7-19.4-36-1.9-2.9-4-5.8-6.1-8.6-4.4-5.9 3.8 4.7 0.7 0.9-1.1-1.4-2.2-2.7-3.3-4.1-4.2-5-8.6-9.9-13.2-14.5s-9.5-9.1-14.5-13.2c-1.3-1.1-2.7-2.2-4.1-3.3-3.9-3.1 6.8 5.1 0.9 0.7-2.8-2.1-5.7-4.1-8.6-6.1-11.4-7.6-23.4-14-36-19.4l7.2 3c-17.1-7.1-34.9-12-53.2-14.5 2.7 0.4 5.3 0.7 8 1.1-19.4-2.6-38.9-2.6-58.3 0 2.7-0.4 5.3-0.7 8-1.1-18.3 2.6-36.2 7.4-53.2 14.5l7.2-3c-12.6 5.3-24.7 11.8-36 19.4-2.9 1.9-5.8 4-8.6 6.1-5.9 4.4 4.7-3.8 0.9-0.7-1.4 1.1-2.7 2.2-4.1 3.3-5 4.2-9.9 8.6-14.5 13.2s-9.1 9.5-13.2 14.5c-1.1 1.3-2.2 2.7-3.3 4.1-3.1 3.9 5.1-6.8 0.7-0.9-2.1 2.8-4.1 5.7-6.1 8.6-7.6 11.4-14 23.4-19.4 36 1-2.4 2-4.8 3-7.2-7.1 17.1-12 34.9-14.5 53.2 0.4-2.7 0.7-5.3 1.1-8-2.6 19.4-2.6 38.9 0 58.3-0.4-2.7-0.7-5.3-1.1-8 2.6 18.3 7.4 36.2 14.5 53.2-1-2.4-2-4.8-3-7.2 5.3 12.6 11.8 24.7 19.4 36 1.9 2.9 4 5.8 6.1 8.6 4.4 5.9-3.8-4.7-0.7-0.9 1.1 1.4 2.2 2.7 3.3 4.1 4.2 5 8.6 9.9 13.2 14.5s9.5 9.1 14.5 13.2c1.3 1.1 2.7 2.2 4.1 3.3 3.9 3.1-6.8-5.1-0.9-0.7 2.8 2.1 5.7 4.1 8.6 6.1 11.4 7.6 23.4 14 36 19.4-2.4-1-4.8-2-7.2-3 17.1 7.1 34.9 12 53.2 14.5-2.7-0.4-5.3-0.7-8-1.1 19.4 2.6 38.9 2.6 58.3 0-2.7 0.4-5.3 0.7-8 1.1 18.3-2.6 36.2-7.4 53.2-14.5-2.4 1-4.8 2-7.2 3 12.6-5.3 24.7-11.8 36-19.4 2.9-1.9 5.8-4 8.6-6.1 5.9-4.4-4.7 3.8-0.9 0.7 1.4-1.1 2.7-2.2 4.1-3.3 5-4.2 9.9-8.6 14.5-13.2s9.1-9.5 13.2-14.5c1.1-1.3 2.2-2.7 3.3-4.1 3.1-3.9-5.1 6.8-0.7 0.9 2.1-2.8 4.1-5.7 6.1-8.6 7.6-11.4 14-23.4 19.4-36-1 2.4-2 4.8-3 7.2 7.1-17.1 12-34.9 14.5-53.2-0.4 2.7-0.7 5.3-1.1 8 1.3-9.7 2-19.4 2-29.1 0.1-15.7 13.8-30.7 30-30s30.1 13.2 30 30c-0.2 49.1-15 98.8-43.7 138.9-29.6 41.5-70 72.5-117.8 90.1-93.3 34.4-204.6 4.2-267.7-72.6-32.9-40.1-52.5-87.9-56.5-139.7-3.8-49.3 8.7-100.3 34.4-142.6 24.8-40.8 62.1-75.1 105.8-94.7 25-11.2 50.1-18.1 77.3-21.3 25.2-3 50.8-1.2 75.7 3.9 95.7 19.4 174.6 101.2 189.2 198 2 13.2 3.4 26.5 3.4 39.9 0.1 15.7-13.8 30.7-30 30-16.4-0.7-30-13.1-30.1-29.9zM828.7 28.3c-21.3 0-42.6 0-63.9 0-50.8 0-101.7 0-152.5 0-61.3 0-122.6 0-183.9 0-52.8 0-105.5 0-158.3 0-24.8 0-49.5-0.1-74.3 0-2.5 0-5 0.2-7.5 0.5 2.7-0.4 5.3-0.7 8-1.1-4 0.6-7.8 1.7-11.5 3.2l7.2-3c-2.8 1.2-5.5 2.6-8.1 4.3s-3.5 4 1.9-1.6c-1 1.1-2.3 2-3.3 3-0.3 0.3-3.2 3.2-3 3.3 0 0 5.2-7.3 1.6-1.9-1.7 2.5-3.1 5.2-4.3 8.1 1-2.4 2-4.8 3-7.2-1.5 3.7-2.5 7.6-3.2 11.5 0.4-2.7 0.7-5.3 1.1-8-0.7 5.6-0.5 11.4-0.5 17 0 9.7 0 19.5 0 29.2 0 19.4 0 38.8 0 58.2 0 11.5 0.5 23 2 34.4-0.4-2.7-0.7-5.3-1.1-8 2.8 20.5 8.2 40.6 16.3 59.7-1-2.4-2-4.8-3-7.2 4.5 10.5 9.7 20.7 15.7 30.5 3 4.9 6.1 9.6 9.5 14.2 0.8 1.1 1.5 2.1 2.3 3.2 0.4 0.5 0.8 1 1.2 1.6 1.7 2.3-2.8-4-2.7-3.5 0.4 2.1 4.4 5.5 5.8 7.1 7.2 8.5 15 16.4 23.4 23.8 2.1 1.9 4.3 3.7 6.5 5.5 1 0.8 2 1.6 3.1 2.5 3.4 2.8-6.2-4.6-1.4-1.1 4.6 3.4 9.2 6.7 14 9.7 10.9 7 22.5 13.1 34.4 18.2-2.4-1-4.8-2-7.2-3 19.1 8 39.1 13.5 59.7 16.3-2.7-0.4-5.3-0.7-8-1.1 16.4 2.1 32.8 2 49.3 2h223.7c18.6 0 37.1 0.4 55.6-2-2.7 0.4-5.3 0.7-8 1.1 20.5-2.8 40.6-8.2 59.7-16.3-2.4 1-4.8 2-7.2 3 10.5-4.5 20.7-9.7 30.5-15.7 4.9-3 9.6-6.1 14.2-9.5 1.1-0.8 2.1-1.5 3.2-2.3 0.5-0.4 1-0.8 1.6-1.2 2.3-1.7-4 2.8-3.5 2.7 2.1-0.4 5.5-4.4 7.1-5.8 8.5-7.2 16.4-15 23.8-23.4 1.9-2.1 3.7-4.3 5.5-6.5 0.8-1 1.6-2 2.5-3.1 2.8-3.4-4.6 6.2-1.1 1.4 3.4-4.6 6.7-9.2 9.7-14 7-10.9 13.1-22.5 18.2-34.4-1 2.4-2 4.8-3 7.2 8-19.1 13.5-39.1 16.3-59.7-0.4 2.7-0.7 5.3-1.1 8 2.3-18 2-36.1 2-54.2v-64.2c0-6.7 0.4-13.6-0.5-20.3 0.4 2.7 0.7 5.3 1.1 8-0.6-4-1.7-7.8-3.2-11.5 1 2.4 2 4.8 3 7.2-1.2-2.8-2.6-5.5-4.3-8.1s-4-3.5 1.6 1.9c-1.1-1-2-2.3-3-3.3-0.3-0.3-3.2-3.2-3.3-3 0 0 7.3 5.2 1.9 1.6-2.5-1.7-5.2-3.1-8.1-4.3l7.2 3c-3.7-1.5-7.6-2.5-11.5-3.2 2.7 0.4 5.3 0.7 8 1.1-2.3-0.3-4.5-0.4-6.9-0.5-15.7-0.2-30.7-13.6-30-30 0.7-16.1 13.2-30.2 30-30 36.1 0.5 70.5 26.6 76.4 63.2 2.2 13.6 1.6 27.4 1.6 41.1 0 18.1 0 36.3 0 54.4 0 12.7 0.3 25.5-0.7 38.2-4.3 57.8-26.9 111.9-65.1 155.6-35.8 41-86 70.6-139.3 81.8-27.4 5.8-54.6 6.1-82.3 6.1-32.8 0-65.6 0-98.5 0-34.9 0-69.7 0-104.6 0-21.2 0-42.8 0.9-63.9-1.4-30.3-3.4-58.6-11.1-86.3-23.9-24.5-11.3-47.2-27.2-66.9-45.6-39.8-37.2-68.2-88.3-77.6-142-6.1-35.1-4.5-70.7-4.5-106.2v-41.5c0-28.9 15.4-58.1 42.1-71 12.4-6 25.3-8.8 39.1-8.8h630.4c15.7 0 30.7 13.8 30 30-0.6 16.3-13 30-29.9 30z" />
<glyph unicode="&#xe924;" glyph-name="responsible" d="M997.842 348.86c-9.436 15.758-48.178 62.542-150.438 2.986l-180.31-105.022c-9.040-5.264-18.232-8.982-27.828-11.2 3.556 5.7 6.34 12.15 8.252 19.29 9.218 34.402-11.23 70.318-46.55 81.77-0.686 0.222-1.384 0.396-2.094 0.526-51.82 9.346-102.962 27.836-144.058 42.694-14.28 5.162-27.768 10.040-39.238 13.758-46.168 14.98-87.896-3.562-122.626-23.674l-134.148-77.668-12.648 22.348c-5.584 9.866-14.702 16.974-25.672 20.016-10.974 3.040-22.448 1.64-32.312-3.944l-50.59-28.632c-20.416-11.554-27.626-37.566-16.072-57.984l148.736-262.802c7.82-13.816 22.254-21.584 37.102-21.584 7.092 0.002 14.282 1.776 20.884 5.512l50.59 28.632c9.864 5.582 16.972 14.7 20.014 25.672s1.642 22.448-3.942 32.312l-15.334 27.096 30.578 17.654 230.94-61.88c13.044-3.496 25.846-5.24 38.374-5.24 24.976 0 48.854 6.94 71.324 20.772l327.22 201.486c29.824 18.362 39.286 64.648 19.846 97.106zM267.998 28.098c-0.758-2.734-2.512-4.996-4.938-6.372l-50.588-28.63c-4.978-2.82-11.56-0.992-14.376 3.984l-148.736 262.802c-1.374 2.426-1.712 5.27-0.954 8.004s2.512 4.998 4.938 6.372l50.59 28.632c1.58 0.892 3.334 1.35 5.124 1.35 0.958 0 1.926-0.13 2.88-0.396 2.734-0.758 4.998-2.512 6.37-4.938v-0.002l148.736-262.802c1.374-2.426 1.712-5.27 0.954-8.004zM961.214 279l-327.218-201.486c-25.95-15.974-54.424-19.966-84.636-11.872l-237.342 63.596c-4.098 1.098-8.464 0.524-12.14-1.598l-36.082-20.83-89.228 157.66 134.42 77.826c30.070 17.41 62.598 31.998 96.72 20.926 10.964-3.554 23.6-8.124 38.232-13.412 41.928-15.158 94.036-33.996 148.102-43.88 18.844-6.582 29.38-24.786 24.57-42.732-6.324-23.61-25.988-26.552-41.642-24.75-26.554 5.46-51.786 12.66-78.484 20.286-12.672 3.62-25.774 7.362-39.244 10.968-8.544 2.288-17.31-2.78-19.596-11.314s2.78-17.308 11.314-19.596c13.214-3.54 26.19-7.246 38.736-10.828 27.514-7.858 53.502-15.28 81.486-21 0.104-0.020 0.206-0.028 0.308-0.046 0.11-0.020 0.216-0.052 0.326-0.070l22.422-3.646c33.532-5.364 63.288-0.138 90.96 15.974l180.31 105.022c51.902 30.23 91.86 33.306 106.88 8.222 10.356-17.29 5.724-44.248-9.174-53.42zM118.614 252.132c1.444-9.87-5.388-19.042-15.26-20.486-9.87-1.442-19.042 5.388-20.486 15.26-1.442 9.87 5.388 19.042 15.26 20.486 9.87 1.444 19.042-5.388 20.486-15.26zM182.344 832.844l42.452-34.12-14.29-52.556c-2.264-8.326 0.786-16.98 7.764-22.050 3.63-2.636 7.854-3.96 12.086-3.96 3.906 0 7.818 1.126 11.278 3.394l45.568 29.83 45.566-29.828c7.218-4.726 16.392-4.504 23.37 0.566 6.98 5.072 10.028 13.726 7.764 22.048l-14.29 52.556 42.45 34.118c6.724 5.402 9.348 14.196 6.682 22.4-2.666 8.206-9.956 13.778-18.572 14.198l-54.398 2.652-19.332 50.916c-3.058 8.052-10.61 13.258-19.24 13.258s-16.182-5.206-19.24-13.258l-19.332-50.916-54.4-2.652c-8.616-0.42-15.904-5.992-18.57-14.198-2.66-8.202-0.038-16.996 6.684-22.398zM257.652 840.494c8.178 0.394 15.34 5.598 18.244 13.25l11.31 29.786 11.308-29.782c2.906-7.656 10.068-12.86 18.238-13.254l31.824-1.55-24.846-19.97c-6.37-5.13-9.098-13.542-6.954-21.43l8.358-30.746-26.658 17.452c-3.424 2.242-7.348 3.362-11.272 3.362s-7.848-1.122-11.27-3.362l-26.658-17.45 8.362 30.754c2.14 7.896-0.596 16.308-6.97 21.43l-24.834 19.96zM182.344 555.194l42.452-34.12-14.29-52.56c-2.26-8.322 0.788-16.976 7.766-22.044 3.63-2.636 7.854-3.962 12.086-3.962 3.904 0 7.816 1.128 11.278 3.394l45.568 29.83 45.572-29.832c7.22-4.724 16.392-4.496 23.368 0.574 6.978 5.070 10.022 13.724 7.76 22.044l-14.29 52.556 42.452 34.12c6.722 5.402 9.344 14.196 6.678 22.398-2.666 8.206-9.954 13.778-18.57 14.198l-54.4 2.652-19.332 50.916c-3.056 8.052-10.608 13.256-19.238 13.258 0 0 0 0-0.002 0-8.63 0-16.182-5.204-19.24-13.256l-19.332-50.918-54.4-2.652c-8.616-0.42-15.906-5.992-18.572-14.198-2.658-8.206-0.036-16.998 6.686-22.398zM257.652 562.844c8.178 0.394 15.34 5.598 18.246 13.25l11.308 29.788 11.308-29.784c2.906-7.656 10.068-12.86 18.238-13.254l31.824-1.55-24.832-19.958c-6.38-5.126-9.116-13.542-6.968-21.442l8.358-30.744-26.658 17.45c-6.848 4.48-15.696 4.48-22.542 0l-26.658-17.45 8.362 30.754c2.142 7.898-0.596 16.312-6.97 21.43l-24.834 19.96zM433.788 585.424l35.144-13.528c5.182-18.758 12.644-36.756 22.262-53.704l-15.296-34.438c-2.686-6.048-1.372-13.126 3.31-17.808l49.486-49.486c4.682-4.68 11.764-5.99 17.808-3.308l34.454 15.302c16.948-9.618 34.942-17.078 53.684-22.258l13.532-35.156c2.376-6.176 8.312-10.252 14.932-10.252h69.984c6.62 0 12.554 4.076 14.932 10.252l13.528 35.144c18.75 5.182 36.752 12.644 53.704 22.264l34.438-15.296c6.050-2.686 13.128-1.372 17.808 3.308l49.486 49.486c4.68 4.682 5.996 11.76 3.31 17.808l-15.3 34.454c9.616 16.946 17.078 34.942 22.258 53.686l35.154 13.532c6.178 2.376 10.252 8.312 10.252 14.932v69.982c0 6.62-4.076 12.554-10.252 14.932l-35.144 13.528c-5.182 18.752-12.646 36.756-22.264 53.704l15.294 34.44c2.688 6.048 1.372 13.126-3.308 17.808l-49.486 49.484c-4.68 4.678-11.756 5.992-17.808 3.308l-34.452-15.3c-16.948 9.618-34.942 17.076-53.684 22.258l-13.532 35.156c-2.376 6.176-8.312 10.252-14.932 10.252h-69.982c-6.618 0-12.554-4.076-14.932-10.252l-13.534-35.156c-18.742-5.18-36.74-12.642-53.684-22.258l-34.452 15.3c-6.048 2.688-13.128 1.372-17.808-3.308l-49.486-49.486c-4.68-4.682-5.996-11.76-3.31-17.808l15.3-34.448c-9.618-16.948-17.080-34.944-22.26-53.692l-35.15-13.53c-6.178-2.376-10.252-8.312-10.252-14.932v-69.984c-0.004-6.62 4.070-12.556 10.248-14.932zM455.536 659.354l32.59 12.544c4.924 1.894 8.596 6.096 9.818 11.228 5.040 21.18 13.4 41.344 24.846 59.932 2.768 4.494 3.142 10.062 1 14.884l-14.188 31.946 33.95 33.95 31.948-14.188c4.822-2.142 10.39-1.77 14.882 0.998 18.59 11.448 38.754 19.806 59.93 24.848 5.132 1.22 9.332 4.892 11.226 9.816l12.548 32.596h48.012l12.546-32.596c1.894-4.922 6.094-8.596 11.226-9.816 21.176-5.042 41.34-13.4 59.932-24.848 4.494-2.768 10.060-3.14 14.882-0.998l31.948 14.188 33.95-33.948-14.182-31.936c-2.142-4.822-1.768-10.39 0.998-14.884 11.45-18.59 19.81-38.758 24.852-59.946 1.222-5.132 4.894-9.334 9.818-11.228l32.584-12.542v-48.010l-32.594-12.546c-4.924-1.894-8.596-6.096-9.818-11.228-5.040-21.176-13.398-41.34-24.846-59.93-2.766-4.492-3.14-10.060-1-14.882l14.19-31.95-33.95-33.95-31.934 14.186c-4.824 2.144-10.392 1.77-14.886-1-18.592-11.452-38.76-19.81-59.944-24.85-5.132-1.222-9.334-4.894-11.228-9.818l-12.542-32.586h-48.012l-12.546 32.596c-1.894 4.922-6.094 8.596-11.228 9.816-21.174 5.042-41.338 13.4-59.93 24.848-4.494 2.77-10.064 3.142-14.882 0.998l-31.95-14.19-33.95 33.95 14.182 31.936c2.142 4.822 1.768 10.39-1 14.884-11.446 18.584-19.806 38.752-24.848 59.944-1.222 5.132-4.894 9.334-9.818 11.228l-32.584 12.542v48.012zM697.678 484.378c84.546 0 153.33 68.784 153.33 153.33s-68.784 153.332-153.33 153.332-153.33-68.784-153.33-153.33 68.784-153.332 153.33-153.332zM697.678 759.040c66.902 0 121.33-54.428 121.33-121.33s-54.428-121.33-121.33-121.33-121.33 54.428-121.33 121.33 54.428 121.33 121.33 121.33zM678.040 556.066c10.086 0 19.834 3.848 27.622 11.636l83.076 83.076c7.58 7.58 11.754 17.682 11.754 28.446s-4.174 20.868-11.754 28.446c-15.684 15.682-41.204 15.682-56.89 0l-55.104-55.106-13.234 13.232c-7.578 7.58-17.68 11.756-28.446 11.754-10.764 0-20.864-4.174-28.444-11.752-7.58-7.58-11.752-17.682-11.752-28.446s4.174-20.868 11.752-28.444l37.682-37.686c10.060-10.056 22.126-15.156 33.738-15.156zM626.868 637.354c0 1.284 0.308 3.746 2.38 5.816 2.072 2.072 4.536 2.38 5.818 2.38s3.746-0.308 5.816-2.38l24.548-24.546c6.248-6.246 16.378-6.246 22.626 0l66.418 66.418c3.154 3.156 8.482 3.152 11.636 0 2.072-2.070 2.38-4.534 2.38-5.816s-0.31-3.746-2.38-5.816l-83.076-83.076c-5.836-5.834-13.804 1.218-16.106 3.52l-37.682 37.686c-2.070 2.068-2.378 4.53-2.378 5.814z" />
<glyph unicode="&#xe925;" glyph-name="creative" d="M886.154 695.278h-75.818v-35.009h75.818c7.24 0 13.128-5.888 13.128-13.128v-401.951h-774.564v401.951c0 7.24 5.888 13.128 13.128 13.128h75.818v35.009h-75.818c-26.543 0-48.137-21.594-48.137-48.137v-514.551c0-26.543 21.594-48.137 48.137-48.137h267.524l-32.497-113.445h-62.965v-35.009h404.18v35.009h-62.965l-32.497 113.445h267.527c26.543 0 48.137 21.594 48.137 48.137v514.551c0 26.543-21.594 48.137-48.137 48.137zM614.709-28.991h-205.415l32.497 113.445h140.421zM899.282 132.59c0-7.24-5.888-13.128-13.128-13.128h-748.308c-7.24 0-13.128 5.888-13.128 13.128v77.592h774.564zM207.159 404.5h40.796v-35.009h-40.796zM294.68 404.5h40.796v-35.009h-40.796zM688.526 404.5h40.796v-35.009h-40.796zM776.048 404.5h40.796v-35.009h-40.796zM679.196 893.576c-43.605 42.835-102.982 66.424-167.196 66.424s-123.591-23.589-167.196-66.424c-43.577-42.809-67.575-100.993-67.575-163.836 0-67.081 29.6-131.090 81.211-175.616 25.786-22.248 42.216-52.915 48.010-89.195-13.631-8.792-22.679-24.073-22.679-41.428v-13.942c0-21.344 13.673-39.56 32.746-46.413-2.011-5.363-3.116-11.163-3.116-17.218v-13.94c0-27.195 22.193-49.32 49.469-49.32h98.262c27.278 0 49.469 22.125 49.469 49.32v13.94c0 6.054-1.105 11.855-3.116 17.218 19.071 6.851 32.746 25.068 32.746 46.413v13.942c0 17.355-9.048 32.635-22.679 41.428 5.794 36.28 22.224 66.949 48.010 89.195 51.609 44.526 81.211 108.535 81.211 175.616-0.002 62.843-24.001 121.027-67.577 163.836zM575.593 331.988c0-7.89-6.488-14.312-14.461-14.312h-98.262c-7.975 0-14.461 6.42-14.461 14.312v13.94c0 7.89 6.488 14.312 14.461 14.312h98.262c7.975 0 14.461-6.42 14.461-14.312zM605.221 409.558c0-7.89-6.488-14.312-14.461-14.312h-157.519c-7.975 0-14.461 6.42-14.461 14.312v13.942c0 6.901 4.962 12.677 11.542 14.017 0.004 0 0.007 0.002 0.011 0.002 2.956 0.6 0.91 0.19 160.429 0.291 8.207 0 14.362-6.728 14.461-14.734 0.053-4.503-0.002-9.013-0.002-13.518zM463.826 657.338h-26.042c-8.643 0-16.399 6.288-18.010 14.809-1.619 8.564 3.341 17.215 11.452 20.305 4.934 1.88 12.461 1.858 17.657 0.893 8.49-1.578 14.942-9.179 14.942-17.848zM526.211 472.819h-27.377v149.511h27.377zM642.691 580.63c-31.613-27.276-51.907-64.306-59.333-107.811h-22.139v149.511h26.517c29.405 0 53.331 23.85 53.331 53.167 0 29.315-23.924 53.165-53.331 53.165h-8.196c-29.405 0-53.331-23.85-53.331-53.165v-18.158h-27.377v18.158c0 29.315-23.924 53.165-53.331 53.165h-7.719c-29.405 0-53.331-23.85-53.331-53.165s23.924-53.167 53.331-53.167h26.042v-149.511h-23.184c-7.424 43.505-27.718 80.535-59.333 107.811-43.896 37.87-69.072 92.219-69.072 149.108 0.002 111.314 85.883 195.254 199.765 195.254s199.763-83.94 199.763-195.251c0-56.891-25.176-111.24-69.072-149.11zM561.22 657.338v18.158c0 10.012 8.218 18.156 18.323 18.156h8.196c10.102 0 18.323-8.146 18.323-18.156 0-10.012-8.218-18.158-18.323-18.158z" />
<glyph unicode="&#xe926;" glyph-name="open-mail" d="M1006 535.2c0 5.8-2.8 11.4-7.2 15l-474.6 387.4c-7.2 5.8-17.4 5.8-24.4 0l-474.6-387.4c-4.4-3.4-7.2-9.2-7.2-15v-562c0.2-10.6 9-19.2 19.4-19.2h949.2c10.6 0 19.4 8.8 19.4 19.4zM967.2 14.2l-319.6 261 319.6 223zM512 897.6l442.4-361.2-338-235.8-92.2 75.2c-7.2 5.8-17.4 5.8-24.4 0l-92.2-75.2-338 235.8zM56.8 498l319.6-223-319.6-260.8zM91.8-7.2l420.2 343 420.2-343z" />
<glyph unicode="&#xe927;" glyph-name="bullhorn" d="M592 96h-32v156.8c0 8.837-7.163 16-16 16s-16-7.163-16-16v0-156.8h-416v320h133.12c8.837 0 16 7.163 16 16s-7.163 16-16 16v0h-149.12c-8.837 0-16-7.163-16-16v0-336h-32c-8.837 0-16-7.163-16-16v0-32c0-44.183 35.817-80 80-80v0h416c44.183 0 80 35.817 80 80v0 32c0 8.837-7.163 16-16 16v0zM576 48c0-26.51-21.49-48-48-48v0h-32v16c0 8.837-7.163 16-16 16s-16-7.163-16-16v0-16h-288v16c0 8.837-7.163 16-16 16s-16-7.163-16-16v0-16h-32c-26.51 0-48 21.49-48 48v0 16h512zM864 832h32c8.837 0 16 7.163 16 16s-7.163 16-16 16v0h-32c-26.51 0-48-21.49-48-48v0-16h-16c-8.837 0-16-7.163-16-16s7.163-16 16-16v0h16v-48c0-8.837 7.163-16 16-16s16 7.163 16 16v0 48h16c8.837 0 16 7.163 16 16s-7.163 16-16 16v0h-16v16c0 8.837 7.163 16 16 16v0zM944 928h-192c-26.51 0-48-21.49-48-48v0-32c0-8.837 7.163-16 16-16s16 7.163 16 16v0 32c0 8.837 7.163 16 16 16v0h192c8.837 0 16-7.163 16-16v0-192c0-8.837-7.163-16-16-16v0h-192c-8.837 0-16 7.163-16 16v0 96c0 8.837-7.163 16-16 16s-16-7.163-16-16v0-96c0-26.51 21.49-48 48-48v0h192c26.51 0 48 21.49 48 48v0 192c0 26.51-21.49 48-48 48v0zM784 288c0-35.346 28.654-64 64-64s64 28.654 64 64c0 35.346-28.654 64-64 64v0c-35.346 0-64-28.654-64-64v0zM880 288c0-17.673-14.327-32-32-32s-32 14.327-32 32c0 17.673 14.327 32 32 32v0c17.673 0 32-14.327 32-32v0zM944 432h-192c-26.51 0-48-21.49-48-48v0-192c0-26.51 21.49-48 48-48v0h192c26.51 0 48 21.49 48 48v0 32c0 8.837-7.163 16-16 16s-16-7.163-16-16v0-32c0-8.837-7.163-16-16-16v0h-192c-8.837 0-16 7.163-16 16v0 192c0 8.837 7.163 16 16 16v0h192c8.837 0 16-7.163 16-16v0-96c0-8.837 7.163-16 16-16s16 7.163 16 16v0 96c0 26.51-21.49 48-48 48v0zM391.52 738.4c2.395-1.506 5.307-2.4 8.429-2.4 0.018 0 0.036 0 0.054 0h-0.003c2.631 0.016 5.107 0.665 7.289 1.802l-0.089-0.042 96 48c5.209 2.71 8.705 8.067 8.705 14.24s-3.496 11.53-8.616 14.198l-0.089 0.042-96 48c-2.096 1.079-4.574 1.712-7.2 1.712-8.82 0-15.972-7.136-16-15.949v-96.003c0-0.009 0-0.021 0-0.032 0-5.694 2.974-10.694 7.454-13.529l0.066-0.039zM416 822.080l44.16-22.080-44.16-22.080zM432 656c79.529 0 144 64.471 144 144s-64.471 144-144 144c-79.529 0-144-64.471-144-144v0c0-79.529 64.471-144 144-144v0zM432 912c61.856 0 112-50.144 112-112s-50.144-112-112-112c-61.856 0-112 50.144-112 112v0c0 61.856 50.144 112 112 112v0zM592 592c5.217 0 9.85 2.496 12.771 6.36l0.029 0.040 48 64c1.998 2.641 3.2 5.98 3.2 9.6 0 8.837-7.163 16-16 16-5.217 0-9.85-2.496-12.771-6.36l-0.029-0.040-48-64c-1.998-2.641-3.2-5.98-3.2-9.6 0-5.217 2.496-9.85 6.36-12.771l0.040-0.029c2.641-1.998 5.98-3.2 9.6-3.2v0zM627.2 534.4c2.95-3.904 7.583-6.4 12.8-6.4v0c3.62 0 6.959 1.202 9.64 3.229l-0.040-0.029 64 48c3.904 2.95 6.4 7.583 6.4 12.8 0 8.837-7.163 16-16 16-3.62 0-6.959-1.202-9.64-3.229l0.040 0.029-64-48c-3.904-2.95-6.4-7.583-6.4-12.8 0-3.62 1.202-6.959 3.229-9.64l-0.029 0.040zM784 499.2c-1.388 7.54-7.91 13.177-15.749 13.177-1.223 0-2.414-0.137-3.558-0.397l0.107 0.020-80-16c-8.165-0.841-14.48-7.683-14.48-16 0-8.881 7.199-16.080 16.080-16.080 0.563 0 1.12 0.029 1.669 0.086l-0.069-0.006h3.2l80 16c7.54 1.388 13.177 7.91 13.177 15.749 0 1.223-0.137 2.414-0.397 3.558l0.020-0.107zM48 496h192c8.837 0 16 7.163 16 16v0 256c0 8.837-7.163 16-16 16v0h-192c-8.837 0-16-7.163-16-16v0-256c0-8.837 7.163-16 16-16v0zM64 752h160v-224h-160zM176 720h-32c-8.837 0-16-7.163-16-16s7.163-16 16-16v0h32c8.837 0 16 7.163 16 16s-7.163 16-16 16v0zM176 656h-64c-8.837 0-16-7.163-16-16s7.163-16 16-16v0h64c8.837 0 16 7.163 16 16s-7.163 16-16 16v0zM176 592h-64c-8.837 0-16-7.163-16-16s7.163-16 16-16v0h64c8.837 0 16 7.163 16 16s-7.163 16-16 16v0zM577.92 500.8c-2.824 4.848-7.997 8.055-13.92 8.055-8.867 0-16.055-7.188-16.055-16.055 0-2.944 0.793-5.704 2.176-8.076l-0.041 0.076 70.56-122.080-256-96s0 0-1.12 0h-1.28l-69.28-40c-4.593-2.701-10.118-4.296-16.016-4.296-2.954 0-5.814 0.4-8.529 1.149l0.225-0.053c-8.319 2.298-15.123 7.643-19.278 14.729l-0.082 0.151-32 55.36c-2.272 4.284-3.606 9.365-3.606 14.758 0 11.622 6.195 21.796 15.463 27.402l0.143 0.080 55.36 32 40-69.28c2.818-4.816 7.965-8 13.856-8 0.022 0 0.045 0 0.067 0h-0.003c0.019 0 0.041 0 0.064 0 8.837 0 16 7.163 16 16 0 2.946-0.796 5.705-2.185 8.076l0.041-0.075-41.28 71.36 200.8 165.6 6.56-11.36c2.824-4.848 7.997-8.055 13.92-8.055 8.867 0 16.055 7.188 16.055 16.055 0 2.944-0.793 5.704-2.176 8.076l0.041-0.076-16 27.68c-2.362 3.987-6.304 6.826-10.942 7.665l-0.098 0.015c-0.891 0.176-1.916 0.277-2.964 0.277-3.869 0-7.417-1.373-10.183-3.659l0.027 0.022-224-184.64-68.16-39.36c-19.146-11.299-31.788-31.825-31.788-55.303 0-6.114 0.857-12.029 2.459-17.629l-0.11 0.451-16-9.12c-14.503-8.441-24.097-23.913-24.097-41.625 0-22.106 14.944-40.722 35.28-46.296l0.337-0.079c3.687-1.016 7.921-1.6 12.291-1.6 0.066 0 0.133 0 0.199 0h-0.010c8.832 0.038 17.102 2.408 24.237 6.526l-0.237-0.126 16 9.12c7.489-7.729 16.945-13.509 27.562-16.533l0.438-0.107c4.896-1.423 10.52-2.242 16.336-2.242 0.163 0 0.326 0.001 0.489 0.002h-0.025c0.043 0 0.094 0 0.146 0 11.741 0 22.733 3.21 32.145 8.8l-0.291-0.16 13.92 8 32-55.52c8.458-14.43 23.89-23.967 41.55-23.967 8.792 0 17.032 2.364 24.118 6.49l-0.229-0.123c14.469 8.449 24.036 23.902 24.036 41.59 0 8.841-2.39 17.123-6.559 24.236l0.123-0.226-29.12 50.72 240 90.080c4.413 1.691 7.821 5.151 9.405 9.489l0.035 0.111c0.599 1.612 0.945 3.474 0.945 5.418 0 2.89-0.766 5.601-2.106 7.941l0.041-0.078zM200 227.36c-2.297-1.35-5.059-2.148-8.008-2.148-1.477 0-2.907 0.2-4.264 0.575l0.112-0.026c-4.18 1.111-7.61 3.759-9.72 7.287l-0.040 0.073c-1.35 2.297-2.148 5.059-2.148 8.008 0 1.477 0.2 2.907 0.575 4.264l-0.026-0.112c1.149 4.203 3.855 7.638 7.443 9.719l0.077 0.041 13.92 8 16-27.68zM410.56 182.56c1.35-2.297 2.148-5.059 2.148-8.008 0-1.477-0.2-2.907-0.575-4.264l0.026 0.112c-1.187-4.139-3.884-7.513-7.442-9.559l-0.078-0.041c-2.288-1.337-5.037-2.126-7.97-2.126-5.845 0-10.958 3.134-13.75 7.813l-0.040 0.073-32 55.52 26.56 15.2h1.28z" />
<glyph unicode="&#xe928;" glyph-name="down-arrow" d="M512 256c-8.184 0-16.376 3.128-22.624 9.376l-320 320c-12.504 12.504-12.504 32.752 0 45.248s32.752 12.504 45.248 0l297.376-297.376 297.376 297.376c12.504 12.504 32.752 12.504 45.248 0s12.504-32.752 0-45.248l-320-320c-6.248-6.248-14.44-9.376-22.624-9.376z" />
<glyph unicode="&#xe929;" glyph-name="analytics" d="M682.47 603.028c0 8.836 7.164 16 16 16h309.53c8.836 0 16-7.164 16-16s-7.164-16-16-16h-309.53c-8.836 0-16 7.162-16 16zM0 734.782c0 124.184 101.032 225.218 225.216 225.218s225.216-101.034 225.216-225.218-101.032-225.216-225.216-225.216-225.216 101.032-225.216 225.216zM417.756 718.698l-164.568 0.072 83.362-141.814c45.384 32.108 76.366 83.272 81.206 141.742zM241.216 927.332v-176.556l176.554-0.078c-7.686 93.844-82.722 168.904-176.554 176.634zM32 734.782c0-106.54 86.676-193.216 193.216-193.216 29.998 0 58.42 6.872 83.776 19.124l-97.57 165.984c-1.446 2.458-2.208 5.258-2.208 8.108v192.55c-99.080-8.162-177.214-91.398-177.214-192.55zM698.47 917.528h309.53c8.836 0 16 7.164 16 16s-7.164 16-16 16h-309.53c-8.836 0-16-7.164-16-16s7.164-16 16-16zM698.47 850.54h154.764c8.836 0 16 7.164 16 16s-7.164 16-16 16h-154.764c-8.836 0-16-7.164-16-16s7.164-16 16-16zM523.044 856.068v87.932c0 8.836 7.164 16 16 16h87.932c8.836 0 16-7.164 16-16v-87.932c0-8.836-7.164-16-16-16h-87.932c-8.836 0-16 7.164-16 16zM555.044 872.068h55.932v55.932h-55.932zM698.47 752.278h309.53c8.836 0 16 7.164 16 16s-7.164 16-16 16h-309.53c-8.836 0-16-7.164-16-16s7.164-16 16-16zM698.47 685.29h154.764c8.836 0 16 7.164 16 16s-7.164 16-16 16h-154.764c-8.836 0-16-7.164-16-16s7.164-16 16-16zM523.044 690.818v87.932c0 8.836 7.164 16 16 16h87.932c8.836 0 16-7.164 16-16v-87.932c0-8.836-7.164-16-16-16h-87.932c-8.836 0-16 7.162-16 16zM555.044 706.818h55.932v55.932h-55.932zM138.44 317.3v-365.3c0-8.836-7.164-16-16-16h-106.44c-8.836 0-16 7.164-16 16v365.3c0 8.836 7.164 16 16 16h106.44c8.836 0 16-7.162 16-16zM106.44 301.3h-74.44v-333.3h74.44zM1014.216 28.616l-40.844-42.092c-6.798-7.006-15.86-10.526-24.928-10.526-8.718 0-17.444 3.252-24.182 9.79l-113.128 109.778c-6.642 6.442-10.378 15.108-10.518 24.402-0.074 4.872 0.87 9.59 2.69 13.944l-43.54 42.25c-15.31-11.456-32.146-20.972-50.134-28.21v-195.952c0-8.836-7.164-16-16-16h-106.438c-8.836 0-16 7.164-16 16v187.114c-19.396 5.042-37.77 12.646-54.734 22.43v-209.544c0-8.836-7.164-16-16-16h-106.438c-8.836 0-16 7.164-16 16v311.3c0 8.836 7.164 16 16 16h23.942c-8.372 23.358-12.948 48.506-12.948 74.708 0 84.866 47.874 158.752 118.028 196.1v63.392c0 8.836 7.164 16 16 16h87.932c8.836 0 16-7.164 16-16v-38.060c30.164-2.152 58.68-10.352 84.338-23.4h125.92c8.836 0 16-7.164 16-16s-7.164-16-16-16h-79c45.852-40.7 74.8-100.044 74.8-166.032 0-42.396-11.952-82.048-32.654-115.78l45.404-44.058c4.298 1.95 8.986 3.036 13.856 3.108 9.33 0.14 18.066-3.334 24.708-9.78l113.128-109.778c13.742-13.336 14.074-35.364 0.74-49.104zM797.502 211.958c-4.27-5.118-8.76-10.046-13.468-14.758l39.828-38.648 13.908 14.332zM555.044 564.032c17.744 6.098 36.494 10.006 55.932 11.4v22.068h-55.932zM437.018 354.008c0-104.77 85.238-190.008 190.010-190.008s190.008 85.238 190.008 190.008c0 104.772-85.236 190.008-190.008 190.008s-190.010-85.236-190.010-190.008zM484.46 183.968c-21.022 17.654-38.736 39.122-52.064 63.332h-22.374v-279.3h74.438zM677.632 137.824c-16.26-3.806-33.202-5.824-50.606-5.824-8.052 0-16 0.442-23.832 1.282v-165.282h74.438zM991.192 54.758l-113.128 109.778c-0.632 0.614-1.37 0.748-1.892 0.748-0.016 0-0.032 0-0.046 0-0.528-0.008-1.288-0.154-1.918-0.804l-40.846-42.094c-0.63-0.65-0.754-1.414-0.746-1.94s0.154-1.284 0.802-1.916l113.132-109.78c1.046-1.014 2.848-0.986 3.86 0.056l40.844 42.094c1.010 1.042 0.982 2.846-0.062 3.858zM323.292 410.708v-458.708c0-8.836-7.164-16-16-16h-106.44c-8.836 0-16 7.164-16 16v458.708c0 8.836 7.164 16 16 16h106.44c8.834 0 16-7.164 16-16zM291.292 394.708h-74.44v-426.708h74.44zM461.028 354.008c0 91.532 74.466 166 166 166s166-74.468 166-166-74.466-166-166-166-166 74.468-166 166zM627.028 220.008c33.2 0 63.596 12.164 87.030 32.234-8.142 41.162-44.244 71.3-87.030 71.3s-78.886-30.138-87.030-71.302c23.434-20.068 53.83-32.232 87.030-32.232zM627.028 355.542c20.38 0 36.96 16.582 36.96 36.962s-16.58 36.96-36.96 36.96-36.96-16.58-36.96-36.96 16.578-36.962 36.96-36.962zM493.028 354.008c0-27.176 8.154-52.474 22.114-73.618 11.688 28.836 34.086 51.842 62.094 64.476-11.86 12.392-19.168 29.172-19.168 47.638 0 38.026 30.936 68.96 68.96 68.96s68.96-30.936 68.96-68.96c0-18.466-7.31-35.246-19.168-47.638 28.008-12.634 50.408-35.64 62.094-64.476 13.958 21.144 22.114 46.44 22.114 73.618 0 73.888-60.112 134-134 134s-134-60.112-134-134z" />
<glyph unicode="&#xe92a;" glyph-name="play-button" d="M73.143 960l877.714-512-877.714-512z" />
<glyph unicode="&#xe92b;" glyph-name="development" d="M930.909 156.315h-837.818c-43.442 0-77.576 34.133-77.576 77.576v479.418c0 43.442 34.133 77.576 77.576 77.576h6.206c9.309 0 15.515-6.206 15.515-15.515s-6.206-15.515-15.515-15.515h-6.206c-26.376 0-46.545-20.17-46.545-46.545v-479.418c0-26.376 20.17-46.545 46.545-46.545h837.818c26.376 0 46.545 20.17 46.545 46.545v479.418c0 26.376-20.17 46.545-46.545 46.545h-477.867c-9.309 0-15.515 6.206-15.515 15.515s6.206 15.515 15.515 15.515h477.867c43.442 0 77.576-34.133 77.576-77.576v-479.418c0-43.442-34.133-77.576-77.576-77.576zM992.97 250.958h-961.939c-9.309 0-15.515 6.206-15.515 15.515s6.206 15.515 15.515 15.515h961.939c9.309 0 15.515-6.206 15.515-15.515s-6.206-15.515-15.515-15.515zM619.055 55.467h-214.109c-9.309 0-15.515 6.206-15.515 15.515v100.848c0 9.309 6.206 15.515 15.515 15.515h214.109c9.309 0 15.515-6.206 15.515-15.515v-100.848c0-9.309-6.206-15.515-15.515-15.515zM420.461 86.497h183.079v69.818h-183.079zM685.77-46.933h-347.539c-21.721 0-38.788 17.067-38.788 38.788v55.855c0 21.721 17.067 38.788 38.788 38.788h347.539c21.721 0 38.788-17.067 38.788-38.788v-55.855c0-21.721-17.067-38.788-38.788-38.788zM338.23 55.467c-3.103 0-7.758-4.655-7.758-7.758v-55.855c0-3.103 1.552-7.758 7.758-7.758h347.539c3.103 0 7.758 1.552 7.758 7.758v55.855c0 3.103-1.552 7.758-7.758 7.758zM535.273 202.861h-46.545c-9.309 0-15.515 6.206-15.515 15.515s6.206 15.515 15.515 15.515h46.545c9.309 0 15.515-6.206 15.515-15.515s-6.206-15.515-15.515-15.515zM276.17 564.364c-15.515 0-29.479 1.552-43.442 4.655-7.758 1.552-12.412 9.309-10.861 17.067 3.103 17.067-1.552 26.376-6.206 29.479-3.103 1.552-12.412-3.103-21.721-15.515-4.655-6.206-13.964-7.758-20.17-4.655-23.273 15.515-41.891 35.685-55.855 58.958-4.655 6.206-1.552 15.515 4.655 20.17 13.964 10.861 17.067 20.17 17.067 23.273-1.552 3.103-10.861 7.758-27.927 7.758-7.758 0-15.515 4.655-17.067 12.412-4.655 27.927-4.655 55.855 1.552 80.679 1.552 7.758 9.309 12.412 17.067 10.861 13.964 0 24.824 4.655 26.376 7.758s-3.103 13.964-15.515 23.273c-6.206 4.655-7.758 13.964-3.103 20.17 15.515 23.273 35.685 41.891 58.958 55.855 6.206 4.655 15.515 1.552 20.17-4.655 9.309-13.964 20.17-17.067 23.273-17.067 3.103 3.103 9.309 13.964 7.758 31.030 0 7.758 4.655 15.515 12.412 17.067 27.927 4.655 55.855 4.655 80.679-1.552 7.758-1.552 12.412-9.309 10.861-17.067-3.103-17.067 1.552-26.376 6.206-29.479 3.103-1.552 12.412 3.103 21.721 15.515 4.655 6.206 13.964 7.758 20.17 4.655 23.273-15.515 41.891-35.685 55.855-58.958 4.655-6.206 1.552-15.515-4.655-20.17-13.964-10.861-17.067-20.17-17.067-23.273 1.552-3.103 10.861-7.758 26.376-6.206 7.758 1.552 15.515-4.655 17.067-12.412 4.655-27.927 4.655-55.855-1.552-80.679-1.552-7.758-9.309-12.412-17.067-10.861-17.067 3.103-26.376-1.552-29.479-6.206-3.103-7.758 6.206-18.618 15.515-24.824 6.206-4.655 7.758-13.964 4.655-20.17-15.515-23.273-35.685-41.891-58.958-55.855-6.206-4.655-15.515-1.552-20.17 4.655-7.758 12.412-18.618 18.618-24.824 15.515-3.103-1.552-7.758-10.861-6.206-27.927 0-7.758-4.655-15.515-12.412-17.067-9.309-4.655-21.721-6.206-34.133-6.206zM252.897 596.945c13.964-1.552 27.927-3.103 41.891 0 1.552 21.721 12.412 38.788 26.376 44.994 17.067 6.206 35.685 0 51.2-15.515 12.412 7.758 21.721 17.067 31.030 27.927-15.515 15.515-20.17 35.685-13.964 52.752 7.758 15.515 24.824 24.824 46.545 24.824 1.552 13.964 3.103 27.927 1.552 41.891-21.721 0-38.788 10.861-44.994 26.376s0 34.133 15.515 49.648c-7.758 12.412-17.067 21.721-27.927 31.030-15.515-15.515-35.685-21.721-51.2-13.964s-23.273 24.824-23.273 46.545c-13.964 1.552-27.927 3.103-41.891 0-1.552-23.273-10.861-40.339-27.927-46.545-15.515-6.206-34.133 0-49.648 15.515-12.412-7.758-21.721-17.067-31.030-27.927 15.515-15.515 21.721-35.685 13.964-51.2s-24.824-23.273-46.545-23.273c-1.552-13.964-3.103-27.927 0-41.891 21.721-1.552 38.788-10.861 44.994-26.376s0-34.133-15.515-49.648c7.758-12.412 17.067-21.721 27.927-31.030 15.515 15.515 35.685 21.721 51.2 13.964 12.412-9.309 21.721-26.376 21.721-48.097zM277.721 649.697c-57.406 0-103.952 46.545-103.952 103.952s46.545 103.952 103.952 103.952 103.952-46.545 103.952-103.952-46.545-103.952-103.952-103.952zM277.721 826.57c-40.339 0-72.921-32.582-72.921-72.921s32.582-72.921 72.921-72.921 72.921 32.582 72.921 72.921-32.582 72.921-72.921 72.921zM887.467 320.776h-327.37c-31.030 0-54.303 23.273-54.303 54.303v280.824c0 31.030 23.273 54.303 54.303 54.303h328.921c31.030 0 54.303-23.273 54.303-54.303v-282.376c-1.552-29.479-26.376-52.752-55.855-52.752zM560.097 679.176c-12.412 0-23.273-10.861-23.273-23.273v-280.824c0-12.412 10.861-23.273 23.273-23.273h327.37c12.412 0 23.273 9.309 24.824 23.273v280.824c0 12.412-10.861 23.273-23.273 23.273zM926.255 575.224h-404.945c-9.309 0-15.515 6.206-15.515 15.515s6.206 15.515 15.515 15.515h404.945c9.309 0 15.515-6.206 15.515-15.515s-6.206-15.515-15.515-15.515zM741.624 626.424h-167.564c-9.309 0-15.515 6.206-15.515 15.515s6.206 15.515 15.515 15.515h167.564c9.309 0 15.515-6.206 15.515-15.515s-6.206-15.515-15.515-15.515zM806.788 626.424h-17.067c-9.309 0-15.515 6.206-15.515 15.515s6.206 15.515 15.515 15.515h17.067c9.309 0 15.515-6.206 15.515-15.515s-6.206-15.515-15.515-15.515zM873.503 626.424h-17.067c-9.309 0-15.515 6.206-15.515 15.515s6.206 15.515 15.515 15.515h17.067c9.309 0 15.515-6.206 15.515-15.515s-6.206-15.515-15.515-15.515zM667.152 406.109c-4.655 0-7.758 1.552-10.861 4.655l-44.994 44.994c-3.103 3.103-4.655 6.206-4.655 10.861s1.552 7.758 4.655 10.861l46.545 44.994c6.206 6.206 15.515 6.206 21.721 0s6.206-15.515 0-21.721l-35.685-34.133 34.133-34.133c6.206-6.206 6.206-15.515 0-21.721-3.103-3.103-6.206-4.655-10.861-4.655zM780.412 406.109c-4.655 0-7.758 1.552-10.861 4.655-6.206 6.206-6.206 15.515 0 21.721l44.994 44.994c6.206 6.206 15.515 6.206 21.721 0s6.206-15.515 0-21.721l-44.994-44.994c-3.103-3.103-6.206-4.655-10.861-4.655zM825.406 451.103c-3.103 0-7.758 1.552-10.861 4.655l-46.545 44.994c-6.206 6.206-6.206 15.515 0 21.721s15.515 6.206 21.721 0l46.545-44.994c6.206-6.206 6.206-15.515 0-21.721-3.103-3.103-6.206-4.655-10.861-4.655zM707.491 390.594c-1.552 0-3.103 0-4.655 0-7.758 1.552-12.412 10.861-10.861 18.618l32.582 121.018c1.552 7.758 10.861 12.412 18.618 10.861s12.412-10.861 10.861-18.618l-31.030-121.018c-3.103-6.206-9.309-10.861-15.515-10.861zM401.842 320.776h-248.242c-37.236 0-66.715 29.479-66.715 66.715s29.479 66.715 66.715 66.715h248.242c37.236 0 66.715-29.479 66.715-66.715s-29.479-66.715-66.715-66.715zM153.6 423.176c-18.618 0-35.685-17.067-35.685-35.685s17.067-35.685 35.685-35.685h248.242c18.618 0 35.685 17.067 35.685 35.685s-17.067 35.685-35.685 35.685zM313.406 371.976h-138.085c-9.309 0-15.515 6.206-15.515 15.515s6.206 15.515 15.515 15.515h138.085c9.309 0 15.515-6.206 15.515-15.515s-6.206-15.515-15.515-15.515z" />
<glyph unicode="&#xe92c;" glyph-name="seo" d="M384 751.632h-32c-8.832 0-16 7.184-16 16h-32c0-26.464 21.536-48 48-48h32c26.464 0 48 21.536 48 48s-21.536 48-48 48h-32c-8.832 0-16 7.184-16 16s7.168 16 16 16h32c8.832 0 16-7.184 16-16h32c0 26.464-21.536 48-48 48h-32c-26.464 0-48-21.536-48-48s21.536-48 48-48h32c8.832 0 16-7.184 16-16s-7.168-16-16-16zM512 719.632h48v32h-48c-8.832 0-16 7.184-16 16v16h64v32h-64v16c0 8.816 7.168 16 16 16h48v32h-48c-26.464 0-48-21.536-48-48v-64c0-26.464 21.536-48 48-48zM640 719.632h32c26.464 0 48 21.536 48 48v64c0 26.464-21.536 48-48 48h-32c-26.464 0-48-21.536-48-48v-64c0-26.464 21.536-48 48-48zM624 831.632c0 8.816 7.168 16 16 16h32c8.832 0 16-7.184 16-16v-64c0-8.816-7.168-16-16-16h-32c-8.832 0-16 7.184-16 16zM1008 592h-64v48c0 44.112-35.888 80-80 80h-80v175.632c0 26.464-21.536 48-48 48h-448c-26.464 0-48-21.536-48-48v-175.632h-80c-44.112 0-80-35.888-80-80v-97.312c-38.192-22.176-64-63.44-64-110.688s25.808-88.512 64-110.688v-129.312c0-44.112 35.888-80 80-80h192v-64h-16c-44.112 0-80-35.888-80-80v-16h512v16c0 44.112-35.888 80-80 80h-16v64h192c44.112 0 80 35.888 80 80v112h64zM272 895.632c0 8.816 7.168 16 16 16h448c8.832 0 16-7.184 16-16v-192c0-8.816-7.168-16-16-16h-164.832l-93.84-62.208c-5.328-3.584-13.328 0.736-13.328 7.168v55.040h-176c-8.832 0-16 7.184-16 16zM112 640c0 26.464 21.536 48 48 48h82.832c6.528-18.768 24.192-32.368 45.168-32.368h144v-23.040c0-22.384 18.208-40.592 40.592-40.592 8 0 15.744 2.336 22.416 6.752l85.808 56.88h155.184c20.96 0 38.64 13.6 45.168 32.368h82.832c26.464 0 48-21.536 48-48v-48h-128v-144h-96v80h-96v-192h-32v224h-96v-224h-32v160h-96v-48h-65.104c-7.92 63.040-61.744 112-126.896 112-11.072 0-21.744-1.552-32-4.208zM624 336v160h32v-160zM528 336h-32v192h32zM400 336h-32v128h32zM48 432c0 52.944 43.056 96 96 96s96-43.056 96-96-43.056-96-96-96-96 43.056-96 96zM733.264-16h-442.528c6.608 18.624 24.4 32 45.264 32h352c20.864 0 38.656-13.376 45.264-32zM640 48h-256v64h256zM864 144h-704c-26.464 0-48 21.536-48 48v48h800v-48c0-26.464-21.536-48-48-48zM912 272h-800v36.208c10.256-2.656 20.928-4.208 32-4.208 65.152 0 118.976 48.96 126.896 112h65.104v-80h-32v-32h416v32h-32v80h96v-112h128zM976 336h-160v224h160zM464 192c0-8.837-7.163-16-16-16s-16 7.163-16 16c0 8.837 7.163 16 16 16s16-7.163 16-16zM528 192c0-8.837-7.163-16-16-16s-16 7.163-16 16c0 8.837 7.163 16 16 16s16-7.163 16-16zM592 192c0-8.837-7.163-16-16-16s-16 7.163-16 16c0 8.837 7.163 16 16 16s16-7.163 16-16zM208 432c0 35.296-28.704 64-64 64s-64-28.704-64-64 28.704-64 64-64 64 28.704 64 64zM112 432c0 17.648 14.352 32 32 32s32-14.352 32-32-14.352-32-32-32-32 14.352-32 32zM848 528h96v-32h-96zM848 464h96v-32h-96zM848 400h96v-32h-96z" />
<glyph unicode="&#xe92d;" glyph-name="quote" d="M324.334 483.268c0 143.332 162.813 151.681 162.813 151.681v154.811c-339.887 0-401.813-235.521-401.813-347.892v-353.455h401.813v394.854zM768.713 483.268c0 143.332 162.816 151.681 162.816 151.681v154.811c-339.891 0-401.818-235.521-401.818-347.892v-353.455h401.818v394.854z" />
<glyph unicode="&#xe92e;" glyph-name="settings" d="M689.846 798.66c-82.219 0-148.87-66.651-148.87-148.87s66.651-148.87 148.87-148.87c82.219 0 148.87 66.651 148.87 148.87 0 0.003 0 0.007 0 0.010v0c-0.102 82.175-66.694 148.763-148.861 148.86h-0.009zM689.846 532.92c-64.546 0-116.87 52.324-116.87 116.87s52.324 116.87 116.87 116.87c64.542 0 116.864-52.319 116.87-116.859v-0.001c-0.068-64.52-52.351-116.806-116.863-116.88h-0.007zM969.446 578.966c16.902 0.022 30.598 13.718 30.618 30.618v80.416c-0.020 16.902-13.716 30.598-30.616 30.62h-51.582c-4.887 15.583-10.558 28.93-17.342 41.589l0.622-1.271 36.48 36.48c5.532 5.545 8.953 13.199 8.953 21.652s-3.421 16.107-8.954 21.653l-56.853 56.849c-5.546 5.531-13.2 8.951-21.652 8.951s-16.106-3.42-21.653-8.951l-36.479-36.481c-11.389 6.163-24.735 11.833-38.637 16.258l-1.681 0.462v51.57c-0.019 16.903-13.717 30.601-30.618 30.62h-80.402c-16.902-0.020-30.599-13.718-30.618-30.618v-51.582c-15.584-4.887-28.931-10.557-41.591-17.342l1.271 0.622-36.488 36.49c-5.545 5.533-13.198 8.954-21.651 8.954s-16.106-3.421-21.652-8.954l-56.855-56.855c-5.532-5.544-8.954-13.198-8.954-21.65s3.421-16.105 8.954-21.651l36.481-36.481c-6.165-11.39-11.835-24.737-16.259-38.64l-0.461-1.68h-51.574c-16.899-0.022-30.594-13.713-30.62-30.61v-80.402c0.022-16.902 13.718-30.598 30.618-30.62h51.576c4.886-15.583 10.556-28.929 17.34-41.589l-0.622 1.271-36.48-36.48c-5.532-5.545-8.953-13.199-8.953-21.652s3.421-16.107 8.954-21.653l56.853-56.877c5.545-5.532 13.199-8.952 21.651-8.952s16.106 3.42 21.652 8.953l36.483 36.479c11.389-6.163 24.735-11.833 38.637-16.258l1.681-0.462v-51.56c0.019-16.902 13.716-30.6 30.616-30.62h80.402c16.903 0.019 30.601 13.717 30.62 30.618v51.572c15.584 4.887 28.931 10.557 41.591 17.342l-1.271-0.622 36.486-36.49c5.545-5.533 13.199-8.954 21.652-8.954s16.107 3.421 21.653 8.954l56.853 56.855c5.532 5.544 8.954 13.198 8.954 21.65s-3.421 16.105-8.954 21.651l-36.481 36.481c6.165 11.39 11.837 24.737 16.261 38.64l0.461 1.68zM890.246 598.892c-5.348-20.782-13.136-39.027-23.235-55.717l0.515 0.917c-1.418-2.341-2.257-5.169-2.257-8.193 0-4.418 1.79-8.417 4.685-11.313l44.072-44.074-54.906-54.898-44.072 44.072c-2.895 2.895-6.895 4.685-11.313 4.685-3.024 0-5.853-0.839-8.265-2.297l0.072 0.040c-15.773-9.581-34.017-17.369-53.371-22.408l-1.429-0.316c-6.992-1.814-12.072-8.069-12.072-15.51v0-62.302h-77.646v62.302c0 7.441-5.080 13.696-11.961 15.485l-0.111 0.025c-20.783 5.354-39.027 13.142-55.718 23.24l0.918-0.516c-2.341 1.418-5.169 2.257-8.193 2.257-4.418 0-8.417-1.79-11.313-4.685l-44.074-44.072-54.902 54.902 44.074 44.072c2.896 2.895 4.687 6.896 4.687 11.314 0 3.025-0.84 5.855-2.299 8.268l0.040-0.072c-9.583 15.773-17.371 34.017-22.407 53.372l-0.315 1.428c-1.814 6.992-8.069 12.072-15.51 12.072h-62.306v77.642h62.306c0 0 0.001 0 0.001 0 7.442 0 13.697 5.081 15.486 11.963l0.025 0.111c5.348 20.782 13.136 39.027 23.235 55.717l-0.515-0.917c1.418 2.341 2.257 5.169 2.257 8.193 0 4.418-1.79 8.417-4.685 11.313l-44.072 44.070 54.902 54.902 44.074-44.072c2.895-2.895 6.895-4.686 11.313-4.686 3.025 0 5.854 0.839 8.266 2.298l-0.072-0.040c15.773 9.582 34.018 17.371 53.372 22.408l1.428 0.316c6.992 1.814 12.072 8.069 12.072 15.51v0 62.302h77.644v-62.302c0-7.441 5.080-13.696 11.961-15.485l0.111-0.025c20.783-5.354 39.027-13.142 55.718-23.24l-0.918 0.516c2.341-1.418 5.169-2.257 8.193-2.257 4.418 0 8.417 1.79 11.313 4.685l44.074 44.074 54.902-54.904-44.076-44.072c-2.896-2.895-4.687-6.896-4.687-11.314 0-3.025 0.84-5.855 2.299-8.268l-0.040 0.072c9.582-15.773 17.37-34.017 22.406-53.372l0.316-1.428c1.814-6.992 8.069-12.072 15.51-12.072h62.304v-77.646h-62.304c-0.001 0-0.001 0-0.002 0-7.441 0-13.695-5.079-15.485-11.959l-0.025-0.111zM917.89 366.832c-0.126-0.070-0.254-0.14-0.38-0.214-42.36-24.66-82.982-56.826-120.742-95.614-19.524-18.2-36.2-24.584-57.486-22.062-75.976 9.384-162.822 32.984-258.134 70.146-113.694 49.924-217.666 35.346-309.034-43.316-2.496-1.98-5.291-3.877-8.225-5.561l-0.331-0.175-1.896 7.076c-1.889 6.885-8.091 11.86-15.455 11.86-1.474 0-2.902-0.199-4.257-0.573l0.112 0.026-130.202-34.886c-6.886-1.888-11.862-8.091-11.862-15.456 0-1.474 0.199-2.901 0.572-4.257l-0.026 0.112 76.656-286.080c1.888-6.886 8.091-11.862 15.456-11.862 1.474 0 2.901 0.199 4.257 0.572l-0.112-0.026 130.2 34.89c6.885 1.889 11.86 8.091 11.86 15.455 0 1.474-0.199 2.902-0.573 4.257l0.026-0.112-5.2 19.4c18.78 8.576 39 18.050 60.256 28.226 15.252 4.4 63.44 3.868 215.336-44.768l0.492-0.148q51.84-14.79 94.78-14.782c44.718 0 82 12.042 111.4 36.086 42.336 22.614 157.658 95.866 180.958 116.216 20.5 17.908 59.648 70.568 119.686 160.984 0.269 0.398 0.551 0.871 0.81 1.359l0.042 0.087c11.178 21.4 8.972 42.148-6.052 56.894-23.352 22.922-74.442 26.34-92.936 16.244zM103.97-28.4l-68.37 255.17 99.292 26.6 68.372-255.17zM988.872 309.2c-71.418-107.516-101.188-143-113.582-153.836-21.896-19.124-137.39-92.272-176.308-112.8-1.064-0.565-1.981-1.189-2.824-1.899l0.024 0.019c-39.6-33.12-99.472-38.584-177.96-16.24-168.248 53.852-215.096 51.106-235.69 44.35-0.771-0.253-1.409-0.514-2.026-0.814l0.096 0.042c-19.628-9.4-38.358-18.2-55.884-26.242l-52.59 196.26c7.949 4.195 14.778 8.668 21.145 13.699l-0.285-0.217c82.45 70.98 172.6 83.464 275.582 38.138 0.2-0.092 0.418-0.178 0.63-0.262 96.26-37.556 184.44-61.674 262.172-71.71 16.92-12.418 19.936-19.96 19.6-21.698-0.020-0.108-3.338-10.942-48.374-21.214-15.47-3.532-64.8 5.692-104.45 13.1-33.834 6.326-65.8 12.298-88 13.476-0.368 0.020-0.738 0.026-1.108 0.022-24.578-0.4-43.128-4.774-56.714-13.368-4.504-2.882-7.446-7.858-7.446-13.522 0-8.837 7.164-16.001 16.001-16.001 3.174 0 6.131 0.924 8.619 2.517l-0.064-0.038c8.15 5.16 21.826 8.062 39.568 8.4 20.13-1.148 52.22-7.144 83.262-12.946 46.036-8.6 78.946-14.386 100.952-14.386 0.385-0.007 0.84-0.011 1.295-0.011 5.38 0 10.628 0.565 15.688 1.639l-0.492-0.087c28.6 6.524 67.228 18.416 72.664 46.286 2.218 11.36-1.766 21.716-7.918 30.468 15.236 4.72 29.702 13.764 44.44 27.562 0.184 0.17 0.364 0.346 0.538 0.526 35.688 36.702 73.958 67.082 113.76 90.304 8.382 3.574 43.904 1.058 55.702-11.472 1.928-2.044 5.904-6.256-0.024-18.044z" />
<glyph unicode="&#xe92f;" glyph-name="cross" d="M473.6-17.067h85.333v418.133h418.133v85.333h-418.133v426.667h-85.333v-426.667h-426.667v-85.333h426.667z" />
<glyph unicode="&#xe930;" glyph-name="like" d="M854.808 437.834h-276.88l0.678 91.574c0.060 8.284-6.606 15.050-14.888 15.112-0.038 0-0.076 0-0.114 0-8.232 0-14.936-6.642-14.998-14.888l-0.678-91.796h-50.224c-8.284 0-15-6.716-15-15s6.716-15 15-15h357.106c23.1 0 41.894-18.792 41.894-41.894s-18.792-41.894-41.894-41.894h-169.186c-8.284 0-15-6.716-15-15s6.716-15 15-15h121.426c23.1 0 41.894-18.794 41.894-41.894s-18.794-41.894-41.894-41.894h-157.426c-8.284 0-15-6.716-15-15s6.716-15 15-15h112.964c23.1 0 41.894-18.794 41.894-41.894s-18.792-41.894-41.894-41.894h-144.644c-8.284 0-15-6.716-15-15s6.716-15 15-15h91.31c23.1 0 41.894-18.794 41.894-41.894s-18.792-41.894-41.894-41.894h-374.372c-13.33 0-26.37 2.496-38.758 7.416l-93.742 37.23v380.504h34.5c35.882 0 70.232 13.332 96.72 37.536l74.92 68.462c29.046 26.542 46.048 64.328 46.646 103.77l0.94 109.434h36.334c15.358 0 29.768-6.006 40.578-16.916 10.81-10.908 16.688-25.372 16.55-40.754l-0.494-69.202c-0.058-8.284 6.61-15.046 14.892-15.106h0.11c8.234 0 14.938 6.646 14.998 14.894l0.492 69.174c0.21 23.42-8.754 45.478-25.242 62.114s-38.466 25.796-61.886 25.796h-41.292c-13.578 0-24.79-11.044-24.998-24.718l-0.982-114.358c-0.472-31.112-13.916-60.992-36.884-81.98l-74.92-68.462c-20.948-19.142-48.11-29.682-76.484-29.682h-34.5v39.558c0 19.298-15.702 35-35 35h-132.38c-19.298 0-35-15.702-35-35v-135.516c0-8.284 6.716-15 15-15s15 6.716 15 15v135.516c0 2.756 2.244 5 5 5h132.382c2.756 0 5-2.244 5-5v-506.394c0-2.756-2.244-5-5-5h-132.382c-2.756 0-5 2.244-5 5v296.84c0 8.284-6.716 15-15 15s-15-6.716-15-15v-296.84c0-19.298 15.702-35 35-35h132.382c19.298 0 35 15.702 35 35v24.048l82.666-32.832c15.928-6.326 32.694-9.534 49.832-9.534h374.37c39.642 0 71.894 32.252 71.894 71.894 0 15.694-5.054 30.228-13.62 42.062 37.348 2.546 66.956 33.744 66.956 71.726 0 16.148-5.35 31.068-14.372 43.084 33.428 6.16 58.834 35.522 58.834 70.706 0 15.932-5.21 30.672-14.016 42.604 34.87 4.932 61.776 34.976 61.776 71.184 0 39.642-32.25 71.892-71.894 71.892zM969 960h-235.36c-30.328 0-55-24.672-55-55v-33.384c0-8.284 6.716-15 15-15s15 6.716 15 15v33.384c0 13.786 11.214 25 25 25h235.36c13.786 0 25-11.214 25-25v-220.832c0-13.786-11.214-25-25-25h-65.018c-12.534 0-24.18-6.762-30.396-17.646l-22.266-39-22.268 39c-6.214 10.886-17.86 17.648-30.394 17.648h-65.018c-13.786 0-25 11.214-25 25v119.11c0 8.284-6.716 15-15 15s-15-6.716-15-15v-119.112c0-30.328 24.672-55 55-55h65.018c1.79 0 3.454-0.966 4.342-2.522l26.61-46.604c4.438-7.776 12.756-12.604 21.708-12.606h0.002c8.952 0 17.272 4.83 21.71 12.604l26.608 46.604c0.888 1.556 2.552 2.522 4.342 2.522h65.020c30.328 0 55 24.672 55 55v220.834c0 30.328-24.672 55-55 55zM831.306 727.010c0.17 0 0.342 0.002 0.514 0.006 7.088 0.146 13.808 3.312 18.434 8.688l79.060 91.874c5.404 6.28 4.694 15.75-1.586 21.154-6.278 5.402-15.75 4.694-21.154-1.586l-75.426-87.65-35.502 37.952c-5.66 6.050-15.152 6.366-21.202 0.708-6.050-5.66-6.366-15.152-0.708-21.202l39.308-42.020c4.73-5.054 11.36-7.924 18.262-7.924z" />
</font>
</defs>
</svg>
